<svg viewBox="0 0 933.29 249.35" xmlns="http://www.w3.org/2000/svg"><g fill="#fff"><path d="m808.59 230.21c7.81-7.81 13.28-15 13.28-15s-7.19 5.47-15 13.28-13.28 15-13.28 15 7.19-5.47 15-13.28z"/><path d="m806.87 230.21c7.81 7.81 15 13.28 15 13.28s-5.47-7.19-13.28-15-15-13.28-15-13.28 5.47 7.19 13.28 15z"/><path d="m807.73 230.57c11.04 0 20-1.21 20-1.21s-8.95-1.21-20-1.21-20 1.21-20 1.21 8.95 1.21 20 1.21z"/><path d="m806.52 229.35c0 11.04 1.21 20 1.21 20s1.21-8.95 1.21-20-1.21-20-1.21-20-1.21 8.95-1.21 20z"/><path d="m221.01 72.39c3.75-3.75 6.37-7.2 6.37-7.2s-3.45 2.63-7.2 6.37c-3.75 3.75-6.37 7.2-6.37 7.2s3.45-2.63 7.2-6.37z"/><path d="m220.19 72.39c3.75 3.75 7.2 6.37 7.2 6.37s-2.63-3.45-6.37-7.2c-3.75-3.75-7.2-6.37-7.2-6.37s2.63 3.45 6.37 7.2z"/><path d="m220.6 72.56c5.3 0 9.6-.58 9.6-.58s-4.3-.58-9.6-.58-9.6.58-9.6.58 4.3.58 9.6.58z"/><path d="m220.02 71.97c0 5.3.58 9.6.58 9.6s.58-4.3.58-9.6-.58-9.6-.58-9.6-.58 4.3-.58 9.6z"/><path d="m10.01 190.39c3.75-3.75 6.37-7.2 6.37-7.2s-3.45 2.63-7.2 6.37c-3.75 3.75-6.37 7.2-6.37 7.2s3.45-2.63 7.2-6.37z"/><path d="m9.19 190.39c3.75 3.75 7.2 6.37 7.2 6.37s-2.63-3.45-6.37-7.2c-3.75-3.75-7.2-6.37-7.2-6.37s2.63 3.45 6.37 7.2z"/><path d="m9.6 190.56c5.3 0 9.6-.58 9.6-.58s-4.3-.58-9.6-.58-9.6.58-9.6.58 4.3.58 9.6.58z"/><path d="m9.02 189.97c0 5.3.58 9.6.58 9.6s.58-4.3.58-9.6-.58-9.6-.58-9.6-.58 4.3-.58 9.6z"/><path d="m125.63 213.78c6.25-6.25 10.62-12 10.62-12s-5.75 4.38-12 10.62c-6.25 6.25-10.62 12-10.62 12s5.75-4.38 12-10.62z"/><path d="m124.26 213.78c6.25 6.25 12 10.62 12 10.62s-4.38-5.75-10.62-12c-6.25-6.25-12-10.62-12-10.62s4.38 5.75 10.62 12z"/><path d="m124.95 214.06c8.84 0 16-.97 16-.97s-7.16-.97-16-.97-16 .97-16 .97 7.16.97 16 .97z"/><path d="m123.97 213.09c0 8.84.97 16 .97 16s.97-7.16.97-16-.97-16-.97-16-.97 7.16-.97 16z"/><path d="m745.1 71.44c3.75-3.75 6.37-7.2 6.37-7.2s-3.45 2.63-7.2 6.37c-3.75 3.75-6.37 7.2-6.37 7.2s3.45-2.63 7.2-6.37z"/><path d="m744.28 71.44c3.75 3.75 7.2 6.37 7.2 6.37s-2.63-3.45-6.37-7.2c-3.75-3.75-7.2-6.37-7.2-6.37s2.63 3.45 6.37 7.2z"/><path d="m744.69 71.61c5.3 0 9.6-.58 9.6-.58s-4.3-.58-9.6-.58-9.6.58-9.6.58 4.3.58 9.6.58z"/><path d="m744.11 71.03c0 5.3.58 9.6.58 9.6s.58-4.3.58-9.6-.58-9.6-.58-9.6-.58 4.3-.58 9.6z"/><path d="m924.1 200.44c3.75-3.75 6.37-7.2 6.37-7.2s-3.45 2.63-7.2 6.37c-3.75 3.75-6.37 7.2-6.37 7.2s3.45-2.63 7.2-6.37z"/><path d="m923.28 200.44c3.75 3.75 7.2 6.37 7.2 6.37s-2.63-3.45-6.37-7.2c-3.75-3.75-7.2-6.37-7.2-6.37s2.63 3.45 6.37 7.2z"/><path d="m923.69 200.61c5.3 0 9.6-.58 9.6-.58s-4.3-.58-9.6-.58-9.6.58-9.6.58 4.3.58 9.6.58z"/><path d="m923.11 200.03c0 5.3.58 9.6.58 9.6s.58-4.3.58-9.6-.58-9.6-.58-9.6-.58 4.3-.58 9.6z"/><path d="m165.97 21.83c6.25-6.25 10.62-12 10.62-12s-5.75 4.38-12 10.62c-6.25 6.25-10.62 12-10.62 12s5.75-4.38 12-10.62z"/><path d="m164.59 21.83c6.25 6.25 12 10.62 12 10.62s-4.38-5.75-10.62-12c-6.25-6.25-12-10.62-12-10.62s4.38 5.75 10.62 12z"/><path d="m165.28 22.11c8.84 0 16-.97 16-.97s-7.16-.97-16-.97-16 .97-16 .97 7.16.97 16 .97z"/><path d="m164.31 21.14c0 8.84.97 16 .97 16s.97-7.16.97-16-.97-16-.97-16-.97 7.16-.97 16z"/><path d="m21.97 81.83c6.25-6.25 10.62-12 10.62-12s-5.75 4.38-12 10.62c-6.25 6.25-10.62 12-10.62 12s5.75-4.38 12-10.62z"/><path d="m20.59 81.83c6.25 6.25 12 10.62 12 10.62s-4.38-5.75-10.62-12c-6.25-6.25-12-10.62-12-10.62s4.38 5.75 10.62 12z"/><path d="m21.28 82.11c8.84 0 16-.97 16-.97s-7.16-.97-16-.97-16 .97-16 .97 7.16.97 16 .97z"/><path d="m20.31 81.14c0 8.84.97 16 .97 16s.97-7.16.97-16-.97-16-.97-16-.97 7.16-.97 16z"/><path d="m797.41 16.68c6.25-6.25 10.62-12 10.62-12s-5.75 4.38-12 10.62c-6.25 6.25-10.62 12-10.62 12s5.75-4.38 12-10.62z"/><path d="m796.04 16.68c6.25 6.25 12 10.62 12 10.62s-4.38-5.75-10.62-12c-6.25-6.25-12-10.62-12-10.62s4.38 5.75 10.62 12z"/><path d="m796.73 16.97c8.84 0 16-.97 16-.97s-7.16-.97-16-.97-16 .97-16 .97 7.16.97 16 .97z"/><path d="m795.76 16c0 8.84.97 16 .97 16s.97-7.16.97-16-.97-16-.97-16-.97 7.16-.97 16z"/><path d="m900.41 89.68c6.25-6.25 10.62-12 10.62-12s-5.75 4.38-12 10.62c-6.25 6.25-10.62 12-10.62 12s5.75-4.38 12-10.62z"/><path d="m899.04 89.68c6.25 6.25 12 10.62 12 10.62s-4.38-5.75-10.62-12c-6.25-6.25-12-10.62-12-10.62s4.38 5.75 10.62 12z"/><path d="m899.73 89.97c8.84 0 16-.97 16-.97s-7.16-.97-16-.97-16 .97-16 .97 7.16.97 16 .97z"/><path d="m898.76 89c0 8.84.97 16 .97 16s.97-7.16.97-16-.97-16-.97-16-.97 7.16-.97 16z"/></g></svg>