<svg viewBox="0 0 848.2 64.74" xmlns="http://www.w3.org/2000/svg"><g fill="#fff"><path d="m810.96 50.48c5.82-5.82 9.89-11.17 9.89-11.17s-5.36 4.08-11.17 9.89c-5.82 5.82-9.89 11.17-9.89 11.17s5.36-4.08 11.17-9.89z"/><path d="m809.68 50.48c5.82 5.82 11.17 9.89 11.17 9.89s-4.08-5.36-9.89-11.17c-5.82-5.82-11.17-9.89-11.17-9.89s4.08 5.36 9.89 11.17z"/><path d="m810.32 50.75c8.23 0 14.9-.9 14.9-.9s-6.67-.9-14.9-.9-14.9.9-14.9.9 6.67.9 14.9.9z"/><path d="m809.41 49.84c0 8.23.9 14.9.9 14.9s.9-6.67.9-14.9-.9-14.9-.9-14.9-.9 6.67-.9 14.9z"/><path d="m41.83 55.52c3.49-3.49 5.94-6.7 5.94-6.7s-3.21 2.45-6.7 5.94-5.94 6.7-5.94 6.7 3.21-2.45 6.7-5.94z"/><path d="m41.07 55.52c3.49 3.49 6.7 5.94 6.7 5.94s-2.45-3.21-5.94-6.7-6.7-5.94-6.7-5.94 2.45 3.21 5.94 6.7z"/><path d="m41.45 55.68c4.94 0 8.94-.54 8.94-.54s-4-.54-8.94-.54-8.94.54-8.94.54 4 .54 8.94.54z"/><path d="m40.91 55.14c0 4.94.54 8.94.54 8.94s.54-4 .54-8.94-.54-8.94-.54-8.94-.54 4-.54 8.94z"/><path d="m15.53 15.53c5.82-5.82 9.89-11.17 9.89-11.17s-5.36 4.08-11.17 9.89c-5.82 5.82-9.89 11.17-9.89 11.17s5.36-4.08 11.17-9.89z"/><path d="m14.26 15.53c5.82 5.82 11.17 9.89 11.17 9.89s-4.08-5.36-9.89-11.17c-5.82-5.81-11.18-9.89-11.18-9.89s4.08 5.36 9.89 11.17z"/><path d="m14.9 15.8c8.23 0 14.9-.9 14.9-.9s-6.67-.9-14.9-.9-14.9.9-14.9.9 6.67.9 14.9.9z"/><path d="m13.99 14.9c0 8.23.9 14.9.9 14.9s.9-6.67.9-14.9-.89-14.9-.89-14.9-.9 6.67-.9 14.9z"/><path d="m839.65 10.63c3.49-3.49 5.94-6.7 5.94-6.7s-3.21 2.45-6.7 5.94-5.94 6.7-5.94 6.7 3.21-2.45 6.7-5.94z"/><path d="m838.88 10.63c3.49 3.49 6.7 5.94 6.7 5.94s-2.45-3.21-5.94-6.7-6.7-5.94-6.7-5.94 2.45 3.21 5.94 6.7z"/><path d="m839.26 10.79c4.94 0 8.94-.54 8.94-.54s-4-.54-8.94-.54-8.94.54-8.94.54 4 .54 8.94.54z"/><path d="m838.72 10.25c0 4.94.54 8.94.54 8.94s.54-4 .54-8.94-.54-8.94-.54-8.94-.54 4-.54 8.94z"/></g></svg>