<svg viewBox="0 0 350 48" xmlns="http://www.w3.org/2000/svg"><path d="m350 48h-350l9.28-24-9.28-24h350l-9.28 24z" fill="#fcee21"/><g fill="#0d64ac"><path d="m291.43 18.93c2.8 0 5.07 2.27 5.07 5.07s-2.27 5.07-5.07 5.07c-1.07 0-2.09-.34-2.93-.94.12.01.25.02.37.02 2.29 0 4.15-1.86 4.15-4.15s-1.86-4.15-4.15-4.15c-.12 0-.25 0-.37.02.84-.6 1.86-.93 2.93-.93z"/><path d="m302.51 12.17s.03 0 .04 0c-.01 0-.03 0-.04 0z"/><path d="m304.66 8.24c-1.72.79-3.98 3.11-3.98 5.79 0 2.41 1.74 3.9 1.58 5.72.44 0 1.64-.96.59-2.42.8 1.02 4.27 1.68 4.36-.19.09-1.78-2.57-1.34-1.77.37-.69.81-5.25-.85-4.06-5.3-.5 1.92 1.28 2.06 1.82 1.58.57-.51.4-1.76-.64-1.62.16.03.42.6-.05.8-1.01.43-1.43-2.39 2.64-4.55"/><path d="m304.66 39.76c-1.72-.79-3.98-3.11-3.98-5.79 0-2.41 1.74-3.9 1.58-5.72.44 0 1.64.96.59 2.42.8-1.02 4.27-1.68 4.36.19.09 1.78-2.57 1.34-1.77-.37-.69-.81-5.25.85-4.06 5.3-.5-1.92 1.28-2.06 1.82-1.58.57.51.4 1.76-.64 1.62.16-.03.42-.6-.05-.8-1.01-.43-1.43 2.39 2.64 4.55"/><path d="m302.54 35.83s-.03 0-.04 0z"/><path d="m307.5 37.72c-2.75-.06-2.5-3.77-.07-3.56.99.09 1.31 1.5.41 1.84 1.96.19 1.96-3.38-.82-3.38-4.43 0-4.05 6.82.32 6.82 5.78 0 8.47-8.44-.29-15.45 8.76-7.01 6.06-15.45.29-15.45-4.37 0-4.75 6.82-.32 6.82 2.77 0 2.77-3.58.82-3.38.9.34.57 1.75-.41 1.84-2.43.22-2.68-3.5.07-3.56 4.76-.1 5.95 8.01-1.06 13.32-4.58-2.79-8.64.01-8.99.39.36.39 4.41 3.2 8.99.41 7.01 5.31 5.82 13.42 1.06 13.32zm-10.02-13.72c.49-.17 4.43-2.13 8.31 0-3.89 2.13-7.82.17-8.31 0z"/><path d="m309.65 24.45h.03l.09-.05c.08-.03.2-.09.35-.16.15-.08.32-.18.52-.31.02-.02.05-.03.07-.05l.08-.05c.05-.04.1-.08.16-.12.01-.01.03-.02.04-.03l.04-.03.08-.07.08-.07s.06-.05.08-.07l.08-.08s.05-.05.08-.08l.04-.04s.03-.03.04-.04l.08-.09.08-.09s.03-.03.04-.05l.04-.05.04-.05.04-.05s.05-.07.08-.1c.11-.14.22-.29.32-.45.11-.16.22-.32.33-.49s.23-.34.35-.51.26-.34.4-.51c.15-.17.3-.33.48-.48.17-.15.36-.28.57-.39.03-.01.05-.03.08-.04l.04-.02h.02l.02-.02.08-.03.04-.02h.04l.08-.04s.03 0 .04-.01h.04l.04-.02s.03 0 .04-.01l.08-.02c.11-.02.23-.03.34-.03s.22 0 .33.02c.11.01.22.04.32.07s.2.07.3.11.19.09.28.15c.04.03.09.06.13.08l.06.05h.02l.02.02.03.02.03.02.03.02s.04.03.06.05l.06.05.03.03.03.03.03.03.03.03s.03.04.05.06l.05.06h.01v.03l.03.03s.06.08.08.12l.04.06.02.03.02.03c.05.08.09.17.12.25l.03.06v.03l.02.03s.03.09.04.13v.03l.02.03v.06s.03.09.04.13v.06.13l.02.06s0 .04 0 .06v.06.12c-.02.32-.09.59-.18.82-.04.12-.09.22-.15.31-.05.09-.1.17-.15.24-.01.02-.03.03-.04.05s-.02.03-.04.05l-.04.04-.02.02-.02.02-.03.03s-.02.02-.03.03l-.05.05s-.06.05-.07.07l-.02.02.02-.02s.04-.04.07-.07c.06-.07.15-.16.24-.31.05-.07.09-.15.14-.24s.09-.2.13-.31c.08-.23.14-.5.14-.81v-.12s0-.04 0-.06 0-.04 0-.06v-.12l-.02-.06s0-.04-.01-.06c0-.04-.02-.08-.03-.12v-.03l-.02-.03v-.03l-.02-.03s-.03-.08-.04-.12v-.03l-.02-.03-.03-.06c-.04-.08-.08-.16-.12-.24l-.02-.03-.02-.03-.04-.06s-.05-.07-.08-.11l-.02-.03h-.01v-.03l-.06-.05s-.03-.03-.05-.05l-.02-.03-.03-.02-.03-.02-.03-.02-.05-.05s-.04-.03-.05-.05l-.03-.02-.03-.02-.03-.02h-.01v-.02l-.07-.04s-.08-.05-.12-.08c-.08-.05-.17-.09-.26-.13s-.19-.07-.28-.1c-.1-.03-.2-.05-.3-.06s-.2-.02-.31-.01c-.1 0-.21.01-.31.03l-.08.02s-.03 0-.04.01h-.04l-.04.02s-.03 0-.04.01l-.08.03h-.04l-.04.03-.07.03h-.02l-.02.02-.04.02s-.05.02-.07.04c-.19.1-.37.23-.54.37s-.32.29-.46.45-.27.33-.4.49c-.12.17-.24.34-.36.5s-.23.33-.34.48-.23.3-.34.44c-.03.04-.06.07-.09.1l-.04.05-.04.05-.04.05s-.03.03-.04.05l-.09.09-.09.09s-.03.03-.04.04l-.04.04s-.06.05-.09.08l-.09.08s-.06.05-.09.07-.06.05-.09.07l-.08.06-.04.03s-.03.02-.04.03c-.06.04-.11.08-.16.11l-.08.05s-.05.03-.08.05c-.2.12-.39.22-.54.29s-.27.12-.35.15l-.09.03h-.03z"/><path d="m309.49 24.04s.06-.03.1-.04c.07-.04.18-.09.31-.16s.29-.16.47-.28l.37.28-.26-.36.13-.09.32.26-.19-.26-.05-.06.09-.07.07.05.08-.07-.06-.07.37.27-.28-.35.16.12-.05-.09.13.08-.14-.2.08-.08.11-.12.1.05.05-.06-.08-.07.41.2-.34-.28.42.18-.34-.27.11.05.06-.07-.1-.08c.1-.13.21-.28.31-.43l.31-.46c.13-.19.25-.37.38-.55s.27-.37.43-.54c.16-.18.33-.36.52-.52.21-.18.43-.33.65-.45 0 0 .09-.04.09-.05l.1-.05s.14-.06.14-.06l.24.33-.15-.36s.07-.03.1-.03l.16-.04c.23-.04.37-.06.5-.06s.27 0 .4.02.25.04.38.08c.12.04.24.08.36.13.11.05.23.11.33.17l.12.08s.1.07.11.08c0 0 .09.07.09.07s.12.1.12.11c0 0 .08.08.09.08 0 0 .1.1.11.11l.07.09.07.09.09.12s.07.1.07.11c.1.17.15.28.19.38 0 0 .04.11.05.12l.05.16s.03.11.03.12l.02.11.02.12v.11l.02.11s0 .12 0 .13v.12.1c-.02.33-.09.66-.21.96-.05.13-.11.25-.17.36s-.12.2-.18.28l-.1.13-.07.08-.08.08s-.12.11-.12.11c-.18.16-.48.17-.64 0-.17-.17-.18-.43-.02-.6l.11.08-.09-.1.22.14-.16-.21s.12-.13.19-.25c.04-.06.08-.12.12-.2.04-.07.07-.16.11-.25.07-.21.11-.44.12-.67l.44-.11h-.44l.44-.12h-.35l-.1-.02.44-.1h-.45l-.02-.12.4-.21-.43.11-.03-.1.36-.25-.41.14c-.02-.05-.05-.12-.09-.18l.28-.31-.36.19.09-.11-.03-.04.06-.07-.18.14.24-.3-.2.14.04-.05-.17.12.16-.24-.11.09.04-.07-.16.16.11-.25-.07.08.1-.19-.22.28.11-.25-.08.08.09-.18-.22.27s-.15-.1-.16-.1c-.07-.04-.14-.08-.21-.11s-.15-.06-.23-.08-.16-.04-.24-.05-.16-.01-.24-.01-.16.01-.24.03l-.12.03-.08-.16s-.05.01-.07.02l.04.18s-.17.07-.17.07c-.23.12-.39.23-.54.36s-.29.27-.42.41c-.13.15-.26.31-.38.46-.12.16-.24.33-.35.49l-.34.49c-.12.16-.24.32-.36.46l-.09.11-.09.1s-.08.08-.08.09l-.11.11-.1-.05-.06.06h-.01l.07.08s-.1.09-.1.1l-.09.09-.35-.24.22.23h-.02l.06.08-.08.07-.19.15-.08.06-.19.13-.14.09c-.24.15-.44.25-.6.32-.17.08-.3.13-.39.16 0 0-.11.04-.12.04l-.3-.83zm1.8-.59-.03-.02.04.04-.02-.03zm.55-.46-.07-.06zm5.05-2.67v.03l.08-.12z"/><path d="m309.65 23.55h.03l.09.04c.08.03.2.08.35.15s.33.16.54.29c.03.02.05.03.08.05l.08.05c.05.03.11.07.16.11.01 0 .03.02.04.03l.04.03.08.06s.06.05.09.07.06.05.09.07l.09.08s.06.05.09.08l.04.04s.03.03.04.04l.09.09.09.09s.03.03.04.05l.04.05.04.05.04.05s.06.07.09.1c.11.14.23.29.34.44s.23.32.34.48c.12.16.23.33.36.5.12.17.26.33.4.49s.3.31.46.45c.17.14.35.27.54.37.02.01.05.02.07.04l.04.02h.02l.02.02.07.03.04.02h.04l.08.04s.03 0 .04.01h.04l.04.02s.03 0 .04.01l.08.02c.1.02.21.03.31.03s.21 0 .31-.01.2-.03.3-.06.19-.06.28-.1.18-.08.26-.13c.04-.02.08-.05.12-.08l.06-.04h.01v-.02l.04-.02.03-.02.03-.02s.04-.03.05-.05l.05-.05.03-.02.03-.02.03-.02.02-.03s.03-.03.05-.05l.05-.05h.01v-.03l.03-.03s.05-.07.08-.11l.04-.06.02-.03.02-.03c.05-.08.09-.16.12-.24l.03-.06v-.03l.02-.03s.03-.08.04-.12v-.03l.02-.03v-.05l.02-.02s.02-.08.03-.12c0-.02 0-.04.01-.06v-.09l.02-.03v-.06s0-.04 0-.06 0-.04 0-.06v-.12c0-.3-.06-.58-.14-.81-.04-.11-.08-.22-.13-.31s-.09-.17-.14-.24c-.09-.14-.18-.24-.24-.31-.03-.03-.05-.06-.07-.07l-.02-.02.02.02s.04.04.07.07l.05.05s.02.02.03.03l.03.03.02.02.02.02.04.04s.02.03.04.05c.01.02.03.03.04.05.05.07.1.15.15.24s.1.2.15.31c.09.23.16.51.18.82v.12s0 .04 0 .06v.06.13l-.02.06s0 .04 0 .06c0 .04-.01.09-.02.13v.06l-.02.03v.03s-.03.09-.05.13v.03l-.02.03-.03.06c-.04.09-.08.17-.12.25l-.02.03-.02.03-.04.06s-.05.08-.08.12l-.02.03h-.01v.03l-.06.06s-.03.04-.05.06l-.03.03-.03.03-.03.03-.03.03-.06.05s-.04.03-.06.05l-.03.02-.03.02-.03.02h-.02l-.02.02-.06.05s-.09.06-.13.08c-.09.05-.18.1-.28.15-.1.04-.2.08-.3.11s-.21.05-.32.07-.22.02-.33.02-.23-.01-.34-.03l-.08-.02s-.03 0-.04-.01h-.04l-.04-.02s-.03 0-.04-.01l-.08-.03h-.04l-.04-.03-.08-.03h-.02l-.02-.02-.04-.02s-.05-.03-.08-.04c-.21-.11-.4-.25-.57-.39-.17-.15-.33-.31-.48-.48s-.28-.34-.4-.51-.24-.34-.35-.51-.22-.33-.33-.49-.21-.31-.32-.45c-.03-.04-.05-.07-.08-.1l-.04-.05-.04-.05-.04-.05s-.03-.03-.04-.05l-.08-.09-.08-.09s-.03-.03-.04-.04l-.04-.04s-.05-.06-.08-.08l-.08-.08s-.06-.05-.08-.07l-.08-.07-.08-.07-.04-.03s-.03-.02-.04-.03c-.05-.04-.1-.08-.16-.12l-.08-.05s-.05-.03-.07-.05c-.2-.13-.37-.23-.52-.31s-.26-.13-.35-.16l-.09-.04h-.03z"/><path d="m309.22 23.54s0-.1.03-.14c.08-.23.32-.35.55-.27s.08.04.11.05c.09.03.22.08.39.15.17.08.37.18.59.31l.09.05.08.05.14.09s.09.06.1.07l.4.33s.1.09.1.09l.08.07.09.09.11.12s.07.08.08.09l.07.08.07.09.07.08c.12.14.23.29.35.46l.34.49c.11.16.23.33.35.49s.24.31.37.46.27.28.42.41.31.24.47.32l-.1.45.19-.4.11.05.12.04.15.04c.08.02.16.02.24.03.07 0 .15 0 .23-.01s.16-.03.24-.05.16-.05.23-.08.14-.07.21-.11l.12.11s.06-.04.06-.04l.03-.03-.07-.14.13.09.2.13-.24-.29.09-.08.39.23-.21-.21-.1-.1.31.21-.24-.28.07-.1.35.14-.2-.13v-.02l-.1-.07c.06-.1.09-.16.12-.22l.33.04-.19-.08h.09l-.19-.07.04-.11.04-.17.46-.05-.44-.05h.1l.28-.07-.37-.03.14-.02h-.05l.26-.07-.35-.05c0-.27-.04-.49-.12-.71-.03-.1-.07-.18-.11-.26-.04-.07-.08-.14-.12-.2-.07-.11-.14-.19-.19-.25 0 0-.07-.07-.07-.07-.15-.15-.18-.39-.06-.57s.35-.25.54-.16c.04.02.09.05.12.08l.11.1c.06.06.08.08.11.11l.07.08.07.09c.11.16.18.25.24.36s.12.23.17.37c.12.31.19.63.21.96v.21s0 .11 0 .12v.12s-.01.11-.01.12l-.02.14s-.02.11-.03.12c0 0-.03.1-.03.11l-.04.13s-.05.14-.06.15c-.04.1-.09.21-.15.31 0 0-.05.08-.05.09 0 0-.06.1-.07.1l-.07.1-.09.11s-.07.08-.07.08-.06.07-.07.08l-.12-.09-.05.05-.03.03.08.12s-.08.07-.09.07l-.33-.24.15.19.1.12s-.08.06-.09.07l-.2.13c-.1.06-.21.12-.33.17-.11.05-.23.09-.36.13-.12.04-.25.06-.38.08s-.27.03-.4.02c-.13 0-.27-.02-.41-.04l-.16-.04c-.12-.03-.15-.04-.18-.06l-.12-.04.02-.19-.07-.03-.07.17s-.09-.04-.09-.04-.09-.04-.1-.05c-.22-.12-.44-.27-.65-.45-.19-.16-.37-.34-.53-.52-.15-.18-.3-.36-.43-.54s-.25-.35-.36-.52l-.33-.48c-.1-.15-.21-.29-.31-.43l.27-.37-.25.21-.09.07.07-.1-.06-.06-.09.08.25-.39-.25.23v-.02l-.09.08.25-.39-.24.24v-.02l-.08.09-.09-.09.24-.39-.23.26.02-.04-.1.1.23-.4-.23.27-.06-.05-.07.06-.1-.09.04-.08-.07-.06-.05.06.04-.07-.04-.03.06-.12-.15.15-.17-.13-.09-.06c-.24-.16-.4-.25-.54-.33-.13-.07-.24-.12-.32-.15l-.1-.04c-.16-.08-.27-.25-.27-.42z"/><circle cx="287.03" cy="24" r="1.47"/><circle cx="283.59" cy="24" r=".89"/><circle cx="280.94" cy="24" r=".56"/><path d="m51.57 29.07c-2.8 0-5.07-2.27-5.07-5.07s2.27-5.07 5.07-5.07c1.07 0 2.09.34 2.93.94-.12-.01-.25-.02-.37-.02-2.29 0-4.15 1.86-4.15 4.15s1.86 4.15 4.15 4.15c.12 0 .25 0 .37-.02-.84.6-1.86.93-2.93.93z"/><path d="m40.49 35.83s-.03 0-.04 0z"/><path d="m38.34 39.76c1.72-.79 3.98-3.11 3.98-5.79 0-2.41-1.74-3.9-1.58-5.72-.44 0-1.64.96-.59 2.42-.8-1.02-4.27-1.68-4.36.19-.09 1.78 2.57 1.34 1.77-.37.69-.81 5.25.85 4.06 5.3.5-1.92-1.28-2.06-1.82-1.58-.57.51-.4 1.76.64 1.62-.16-.03-.42-.6.05-.8 1.01-.43 1.43 2.39-2.64 4.55"/><path d="m38.34 8.24c1.72.79 3.98 3.11 3.98 5.79 0 2.41-1.74 3.9-1.58 5.72-.44 0-1.64-.96-.59-2.42-.8 1.02-4.27 1.68-4.36-.19-.09-1.78 2.57-1.34 1.77.37.69.81 5.25-.85 4.06-5.3.5 1.92-1.28 2.06-1.82 1.58-.57-.51-.4-1.76.64-1.62-.16.03-.42.6.05.8 1.01.43 1.43-2.39-2.64-4.55"/><path d="m40.46 12.17s.03 0 .04 0c-.01 0-.03 0-.04 0z"/><path d="m35.5 10.28c2.75.06 2.5 3.77.07 3.56-.99-.09-1.31-1.5-.41-1.84-1.96-.19-1.96 3.38.82 3.38 4.43 0 4.05-6.82-.32-6.82-5.78 0-8.47 8.44.29 15.45-8.76 7.01-6.06 15.45-.29 15.45 4.37 0 4.75-6.82.32-6.82-2.77 0-2.77 3.58-.82 3.38-.9-.34-.57-1.75.41-1.84 2.43-.22 2.68 3.5-.07 3.56-4.76.1-5.95-8.01 1.06-13.32 4.58 2.79 8.64-.01 8.99-.39-.36-.39-4.41-3.2-8.99-.41-7.01-5.31-5.82-13.42-1.06-13.32zm10.02 13.72c-.49.17-4.43 2.13-8.31 0 3.89-2.13 7.82-.17 8.31 0z"/><path d="m33.35 23.55h-.03l-.09.05c-.08.03-.2.09-.35.16-.15.08-.32.18-.52.31-.02.02-.05.03-.07.05l-.08.05c-.05.04-.1.08-.16.12-.01.01-.03.02-.04.03l-.04.03-.08.07-.08.07s-.06.05-.08.07l-.08.08s-.05.05-.08.08l-.04.04s-.03.03-.04.04l-.08.09-.08.09s-.03.03-.04.05l-.04.05-.04.05-.04.05s-.05.07-.08.1c-.11.14-.22.29-.32.45-.11.16-.22.32-.33.49s-.23.34-.35.51-.26.34-.4.51c-.15.17-.3.33-.48.48-.17.15-.36.28-.57.39-.03.01-.05.03-.08.04l-.04.02h-.02l-.02.02-.08.03-.04.02h-.04l-.08.04s-.03 0-.04.01h-.04l-.04.02s-.03 0-.04.01l-.08.02c-.11.02-.23.03-.34.03s-.22 0-.33-.02c-.11-.01-.22-.04-.32-.07s-.2-.07-.3-.11-.19-.09-.28-.15c-.04-.03-.09-.06-.13-.08l-.06-.05h-.02l-.02-.02-.03-.02-.03-.02-.03-.02s-.04-.03-.06-.05l-.06-.05-.03-.03-.03-.03-.03-.03-.03-.03s-.03-.04-.05-.06l-.05-.06h-.01v-.03l-.03-.03s-.06-.08-.08-.12l-.04-.06-.02-.03-.02-.03c-.05-.08-.09-.17-.12-.25l-.03-.06v-.03l-.02-.03s-.03-.09-.04-.13v-.03l-.02-.03v-.06s-.03-.09-.04-.13c0-.02 0-.04 0-.06v-.13l-.02-.06s0-.04 0-.06 0-.04 0-.06v-.12c.02-.32.09-.59.18-.82.04-.12.09-.22.15-.31.05-.09.1-.17.15-.24.01-.02.03-.03.04-.05s.02-.03.04-.05l.04-.04.02-.02.02-.02.03-.03s.02-.02.03-.03l.05-.05s.06-.05.07-.07l.02-.02-.02.02s-.04.04-.07.07c-.06.07-.15.16-.24.31-.05.07-.09.15-.14.24s-.09.2-.13.31c-.08.23-.14.5-.14.81v.12s0 .04 0 .06v.06.12l.02.06s0 .04.01.06c0 .04.02.08.03.12v.03l.02.03v.03l.02.03s.03.08.04.12v.03l.02.03.03.06c.04.08.08.16.12.24l.02.03.02.03.04.06s.05.07.08.11l.02.03h.01v.03l.06.05s.03.03.05.05l.02.03.03.02.03.02.03.02.05.05s.04.03.05.05l.03.02.03.02.03.02h.01v.02l.07.04s.08.05.12.08c.08.05.17.09.26.13s.19.07.28.1c.1.03.2.05.3.06s.2.02.31.01c.1 0 .21-.01.31-.03l.08-.02s.03 0 .04-.01h.04l.04-.02s.03 0 .04-.01l.08-.03h.04l.04-.03.07-.03h.02l.02-.02.04-.02s.05-.02.07-.04c.19-.1.37-.23.54-.37s.32-.29.46-.45.27-.33.4-.49c.12-.17.24-.34.36-.5s.23-.33.34-.48.23-.3.34-.44c.03-.04.06-.07.09-.1l.04-.05.04-.05.04-.05s.03-.03.04-.05l.09-.09.09-.09s.03-.03.04-.04l.04-.04s.06-.05.09-.08l.09-.08s.06-.05.09-.07.06-.05.09-.07l.08-.06.04-.03s.03-.02.04-.03c.06-.04.11-.08.16-.11l.08-.05s.05-.03.08-.05c.2-.12.39-.22.54-.29s.27-.12.35-.15l.09-.03h.03z"/><path d="m33.51 23.96s-.06.03-.1.04c-.07.04-.18.09-.31.16s-.29.16-.47.28l-.37-.28.26.36-.13.09-.32-.26.19.26.05.06-.09.07-.07-.05-.08.07.06.07-.37-.27.28.35-.16-.12.05.09-.13-.08.14.2-.08.08-.11.12-.1-.05-.05.06.08.07-.41-.2.34.28-.42-.18.34.27-.11-.05-.06.07.1.08c-.1.13-.21.28-.31.43l-.31.46c-.13.19-.25.37-.38.55s-.27.37-.43.54c-.16.18-.33.36-.52.52-.21.18-.43.33-.65.45 0 0-.09.04-.09.05l-.1.05s-.14.06-.14.06l-.24-.33.15.36s-.07.03-.1.03l-.16.04c-.23.04-.37.06-.5.06s-.27 0-.4-.02-.25-.04-.38-.08c-.12-.04-.24-.08-.36-.13-.11-.05-.23-.11-.33-.17l-.12-.08s-.1-.07-.11-.08c0 0-.09-.07-.09-.07s-.12-.1-.12-.11c0 0-.08-.08-.09-.08 0 0-.1-.1-.11-.11l-.07-.09-.07-.09-.09-.12s-.07-.1-.07-.11c-.1-.17-.15-.28-.19-.38 0 0-.04-.11-.05-.12l-.05-.16s-.03-.11-.03-.12l-.02-.11-.02-.12v-.11l-.02-.11s0-.12 0-.13v-.12-.1c.02-.33.09-.66.21-.96.05-.13.11-.25.17-.36s.12-.2.18-.28l.1-.13.07-.08.08-.08s.12-.11.12-.11c.18-.16.48-.17.64 0 .17.17.18.43.02.6l-.11-.08.09.1-.22-.14.16.21s-.12.13-.19.25c-.04.06-.08.12-.12.2-.04.07-.07.16-.11.25-.07.21-.11.44-.12.67l-.44.11h.44l-.44.12h.35l.1.02-.44.1h.45l.02.12-.4.21.43-.11.03.1-.36.25.41-.14c.02.05.05.12.09.18l-.28.31.36-.19-.09.11.03.04-.06.07.18-.14-.24.3.2-.14-.04.05.17-.12-.16.24.11-.09-.04.07.16-.16-.11.25.07-.08-.1.19.22-.28-.11.25.08-.08-.09.18.22-.27s.15.1.16.1c.07.04.14.08.21.11s.15.06.23.08.16.04.24.05.16.01.24.01.16-.01.24-.03l.12-.03.08.16s.05-.01.07-.02l-.04-.18s.17-.07.17-.07c.23-.12.39-.23.54-.36s.29-.27.42-.41c.13-.15.26-.31.38-.46.12-.16.24-.33.35-.49l.34-.49c.12-.16.24-.32.36-.46l.09-.11.09-.1s.08-.08.08-.09l.11-.11.1.05.06-.06h.01l-.07-.08s.1-.09.1-.1l.09-.09.35.24-.22-.23h.02l-.06-.08.08-.07.19-.15.08-.06.19-.13.14-.09c.24-.15.44-.25.6-.32.17-.08.3-.13.39-.16 0 0 .11-.04.12-.04l.3.83zm-1.8.59.03.02-.04-.04.02.03zm-.55.46.07.06zm-5.05 2.67v-.03l-.08.12z"/><path d="m33.35 24.45h-.03l-.09-.04c-.08-.03-.2-.08-.35-.15s-.33-.16-.54-.29c-.03-.02-.05-.03-.08-.05l-.08-.05c-.05-.03-.11-.07-.16-.11-.01 0-.03-.02-.04-.03l-.04-.03-.08-.06s-.06-.05-.09-.07-.06-.05-.09-.07l-.09-.08s-.06-.05-.09-.08l-.04-.04s-.03-.03-.04-.04l-.09-.09-.09-.09s-.03-.03-.04-.05l-.04-.05-.04-.05-.04-.05s-.06-.07-.09-.1c-.11-.14-.23-.29-.34-.44s-.23-.32-.34-.48c-.12-.16-.23-.33-.36-.5-.12-.17-.26-.33-.4-.49s-.3-.31-.46-.45c-.17-.14-.35-.27-.54-.37-.02-.01-.05-.02-.07-.04l-.04-.02h-.02l-.02-.02-.07-.03-.04-.02h-.04l-.08-.04s-.03 0-.04-.01h-.04l-.04-.02s-.03 0-.04-.01l-.08-.02c-.1-.02-.21-.03-.31-.03s-.21 0-.31.01-.2.03-.3.06-.19.06-.28.1-.18.08-.26.13c-.04.02-.08.05-.12.08l-.06.04h-.01v.02l-.04.02-.03.02-.03.02s-.04.03-.05.05l-.05.05-.03.02-.03.02-.03.02-.02.03s-.03.03-.05.05l-.05.05h-.01v.03l-.03.03s-.05.07-.08.11l-.04.06-.02.03-.02.03c-.05.08-.09.16-.12.24l-.03.06v.03l-.02.03s-.03.08-.04.12v.03l-.02.03v.05l-.02.02s-.02.08-.03.12c0 .02 0 .04-.01.06v.09l-.02.03v.06s0 .04 0 .06v.06.12c0 .3.06.58.14.81.04.11.08.22.13.31s.09.17.14.24c.09.14.18.24.24.31.03.03.05.06.07.07l.02.02-.02-.02s-.04-.04-.07-.07l-.05-.05s-.02-.02-.03-.03l-.03-.03-.02-.02-.02-.02-.04-.04s-.02-.03-.04-.05c-.01-.02-.03-.03-.04-.05-.05-.07-.1-.15-.15-.24s-.1-.2-.15-.31c-.09-.23-.16-.51-.18-.82v-.12s0-.04 0-.06 0-.04 0-.06v-.13l.02-.06s0-.04 0-.06c0-.04.01-.09.02-.13v-.06l.02-.03v-.03s.03-.09.05-.13v-.03l.02-.03.03-.06c.04-.09.08-.17.12-.25l.02-.03.02-.03.04-.06s.05-.08.08-.12l.02-.03h.01v-.03l.06-.06s.03-.04.05-.06l.03-.03.03-.03.03-.03.03-.03.06-.05s.04-.03.06-.05l.03-.02.03-.02.03-.02h.02l.02-.02.06-.05s.09-.06.13-.08c.09-.05.18-.1.28-.15.1-.04.2-.08.3-.11s.21-.05.32-.07.22-.02.33-.02.23.01.34.03l.08.02s.03 0 .04.01h.04l.04.02s.03 0 .04.01l.08.03h.04l.04.03.08.03h.02l.02.02.04.02s.05.03.08.04c.21.11.4.25.57.39.17.15.33.31.48.48s.28.34.4.51.24.34.35.51.22.33.33.49.21.31.32.45c.03.04.05.07.08.1l.04.05.04.05.04.05s.03.03.04.05l.08.09.08.09s.03.03.04.04l.04.04s.05.06.08.08l.08.08s.06.05.08.07l.08.07.08.07.04.03s.03.02.04.03c.05.04.1.08.16.12l.08.05s.05.03.07.05c.2.13.37.23.52.31s.26.13.35.16l.09.04h.03z"/><path d="m33.78 24.46s0 .1-.03.14c-.08.23-.32.35-.55.27s-.08-.04-.11-.05c-.09-.03-.22-.08-.39-.15-.17-.08-.37-.18-.59-.31l-.09-.05-.08-.05-.14-.09s-.09-.06-.1-.07l-.4-.33s-.1-.09-.1-.09l-.08-.07-.09-.09-.11-.12s-.07-.08-.08-.09l-.07-.08-.07-.09-.07-.08c-.12-.14-.23-.29-.35-.46l-.34-.49c-.11-.16-.23-.33-.35-.49s-.24-.31-.37-.46-.27-.28-.42-.41-.31-.24-.47-.32l.1-.45-.19.4-.11-.05-.12-.04-.15-.04c-.08-.02-.16-.02-.24-.03-.07 0-.15 0-.23.01s-.16.03-.24.05-.16.05-.23.08-.14.07-.21.11l-.12-.11s-.06.04-.06.04l-.03.03.07.14-.13-.09-.2-.13.24.29-.09.08-.39-.23.21.21.1.1-.31-.21.24.28-.07.1-.35-.14.2.13v.02l.1.07c-.06.1-.09.16-.12.22l-.33-.04.19.08h-.09l.19.07-.04.11-.04.17-.46.05.44.05h-.1l-.28.07.37.03-.14.02h.05l-.26.07.35.05c0 .27.04.49.12.71.03.1.07.18.11.26.04.07.08.14.12.2.07.11.14.19.19.25 0 0 .07.07.07.07.15.15.18.39.06.57s-.35.25-.54.16c-.04-.02-.09-.05-.12-.08l-.11-.1c-.06-.06-.08-.08-.11-.11l-.07-.08-.07-.09c-.11-.16-.18-.25-.24-.36s-.12-.23-.17-.37c-.12-.31-.19-.63-.21-.96v-.21s0-.11 0-.12c0 0 0-.11 0-.12 0 0 .01-.11.01-.12l.02-.14s.02-.11.03-.12c0 0 .03-.1.03-.11l.04-.13s.05-.14.06-.15c.04-.1.09-.21.15-.31 0 0 .05-.08.05-.09 0 0 .06-.1.07-.1l.07-.1.09-.11s.07-.08.07-.08.06-.07.07-.08l.12.09.05-.05.03-.03-.08-.12s.08-.07.09-.07l.33.24-.15-.19-.1-.12s.08-.06.09-.07l.2-.13c.1-.06.21-.12.33-.17.11-.05.23-.09.36-.13.12-.04.25-.06.38-.08s.27-.03.4-.02c.13 0 .27.02.41.04l.16.04c.12.03.15.04.18.06l.12.04-.02.19.07.03.07-.17s.09.04.09.04.09.04.1.05c.22.12.44.27.65.45.19.16.37.34.53.52.15.18.3.36.43.54s.25.35.36.52l.33.48c.1.15.21.29.31.43l-.27.37.25-.21.09-.07-.07.1.06.06.09-.08-.25.39.25-.23v.02l.09-.08-.25.39.24-.24v.02l.08-.09.09.09-.24.39.23-.26-.02.04.1-.1-.23.4.23-.27.06.05.07-.06.1.09-.04.08.07.06.05-.06-.04.07.04.03-.06.12.15-.15.17.13.09.06c.24.16.4.25.54.33.13.07.24.12.32.15l.1.04c.16.08.27.25.27.42z"/><circle cx="55.97" cy="24" r="1.47"/><circle cx="59.41" cy="24" r=".89"/><circle cx="62.06" cy="24" r=".56"/></g><path d="m88.77 24.16v1.57h5.52c.56 0 2.04.03 2.04 2.04 0 1.79-1.12 2.04-2.04 2.04h-5.52v2.6c0 .98.28.98 1.57.98 1.54 0 1.57-.11 1.71-1.32.11-.92.2-1.79 1.96-1.79 2.44 0 2.44 1.71 2.44 2.6 0 .67-.14 2.41-.76 3.36-.87 1.37-2.77 1.37-4.51 1.37-4.7 0-5.24-.08-5.96-.48-1.18-.67-1.18-1.82-1.18-3.25v-4.09h-2.49c-.39 2.38-1.01 4.68-4.03 6.44-1.93 1.12-4.12 1.48-4.84 1.48-1.71 0-2.46-1.37-2.46-2.69 0-1.12.45-1.65 1.62-1.93 2.77-.64 4.37-1.01 4.84-3.3h-4.31c-.62 0-2.04-.03-2.04-2.02 0-1.76 1.06-2.07 2.04-2.07h4.96v-1.57h-.67c-.73 0-1.29-.08-1.68-.87-.92.5-2.04 1.15-2.83 1.15-1.43 0-2.27-1.32-2.27-2.6 0-1.2.64-1.57 1.23-1.85.28-.11 1.54-.62 1.79-.73-.31-.31-1.06-1.04-1.23-1.18-.62-.56-.81-.84-.81-1.4 0-1.04.92-2.07 2.1-2.07.56 0 .81.2 1.26.56.76.62 1.51 1.23 2.21 1.9.31-.22 1.76-1.4 1.76-1.6 0-.17-.11-.17-.45-.17h-2.3c-.45 0-1.88 0-1.88-1.74s1.29-1.76 1.88-1.76h7.87c1.34 0 1.57.06 2.1.53.42.36.59.59 1.32 1.4.81-.73 1.34-1.29 1.65-1.6.48-.5.78-.78 1.43-.78 1.01 0 2.16.73 2.16 1.76 0 .59-.28.9-1.23 1.88-.14.14-.98.98-1.43 1.4.36.31.76.62.92.73 1.18-1.18 1.76-1.76 2.32-2.41.59-.67.9-.92 1.51-.92 1.01 0 2.21.81 2.21 1.9 0 .53-.22.84-.9 1.57-.76.81-1.48 1.48-1.79 1.74.45.22 2.07.95 2.24 1.04.67.42.84 1.01.84 1.6 0 1.74-1.2 2.8-2.3 2.8-.53 0-1.18-.22-2.74-1.09-.42.78-1.09.81-1.68.81h-1.18zm-1.62-4c-1.71-1.51-2.6-2.49-3.84-4.03-.87 1.18-1.82 2.35-3.81 4.03h7.64zm-3.11 4h-2.16v1.57h2.16z" fill="#004da0"/><path d="m111.84 23.91c-1.79 0-2.38-.9-2.24-2.66-.31.5-1.01 1.48-1.6 2.18v12.18c0 1.68-.73 2.27-2.52 2.27-1.93 0-2.13-1.37-2.13-2.27v-7.31c-.42.34-.84.62-1.4.62-1.26 0-2.35-1.4-2.35-2.74 0-1.2.62-1.68 1.2-2.16.76-.59 2.38-1.88 4.2-4.09 1.48-1.79 1.76-2.13 2.63-2.13 1.09 0 2.46.95 2.38 2.32.31-.31.62-.64 1.82-.64h12.46c1.68 0 2.27.76 2.27 2.38 0 2.02-1.65 2.04-2.27 2.04h-1.82v9.83c0 3.92-2.3 3.92-5.46 3.92-1.4 0-2.6-.06-3.25-.28-1.26-.45-1.43-1.71-1.43-2.21s.22-2.27 2.16-2.27c.25 0 1.48.11 1.76.11 1.12 0 1.43 0 1.43-.9v-8.2h-5.85zm-5.57-6.5c-1.6 1.32-2.3 1.76-2.88 2.07-.39.2-.84.31-1.18.31-1.23 0-2.44-1.18-2.44-2.52 0-1.09.53-1.46 2.02-2.44 1.68-1.12 2.07-1.46 3.56-2.77.56-.5.98-.84 1.76-.84 1.15 0 2.41.95 2.41 2.24 0 .62 0 1.2-3.25 3.95zm6.64-1.12c-.53 0-2.27 0-2.27-2.04 0-1.62.67-2.3 2.27-2.3h10.44c.5 0 2.24 0 2.24 2.07 0 1.74-.84 2.27-2.24 2.27z" fill="#004da0"/><path d="m145.12 18.59h7.11c.62 0 2.27.06 2.27 2.04 0 1.51-.59 2.27-2.27 2.27h-7.11v2.16h8.43c.53 0 2.27 0 2.27 2.1 0 1.74-.78 2.32-2.27 2.32h-8.43v4.45c0 3.95-2.3 3.95-5.91 3.95-1.54 0-3.05-.03-3.84-.25-.78-.22-1.37-1.15-1.37-2.24s.62-2.3 2.38-2.3c.39 0 2.07.08 2.41.08.31 0 .98-.06 1.15-.14s.25-.42.25-.56v-3h-8.9c-.76 0-2.24-.11-2.24-2.07 0-1.57.5-2.35 2.24-2.35h8.9v-2.16h-7.45c-.5 0-2.27 0-2.27-2.04 0-1.6.73-2.27 2.27-2.27h7.45v-1.93c-.98.03-2.74.06-4.31.08-1.23.03-2.77.08-3.7.08-1.43 0-2.04-1.09-2.04-2.16 0-1.62 1.18-2.07 2.21-2.1 1.04-.03 5.63-.11 6.55-.14 1.01-.06 6.3-.31 9.66-.73.56-.06 3.08-.42 3.61-.42.87 0 1.96.59 1.96 2.27 0 1.54-.87 1.96-2.02 2.13-1.6.25-3.05.36-7 .64v2.27z" fill="#004da0"/><path d="m160.81 29.46c-1.32 0-1.76-.81-1.76-1.82 0-1.4.73-1.88 1.93-1.88h2.02c.45-1.37.56-1.68 1.48-1.9-.06-.25-.06-.39-.06-.67v-1.12c-.98 1.15-2.35 2.63-3.47 2.63-1.32 0-2.04-1.18-2.04-2.35 0-.84.56-1.18 1.76-1.88.92-.56 1.54-1.09 1.99-1.51h-1.68c-.67 0-1.85-.06-1.85-1.76s1.15-1.71 2.13-1.71c-.2-.06-.53-.14-.81-.81-.17-.39-.62-1.51-.62-1.88 0-.78.87-1.37 2.04-1.37.87 0 1.15.31 1.46.87.31.5.62 1.29.62 1.76 0 .28-.06 1.18-1.57 1.43h2.04v-2.41c0-.64 0-1.93 2.02-1.93 1.79 0 2.3.59 2.3 1.93v2.41h1.71c-1.23-.34-1.32-1.15-1.32-1.37 0-.5.53-1.46.78-1.9.17-.31.45-.84 1.51-.84.48 0 2.04.2 2.04 1.37 0 .39-.62 2.38-1.74 2.74.64 0 1.9 0 1.9 1.68s-1.09 1.79-1.82 1.79h-1.82c.14.11.7.67 1.29 1.15.76.62.84.7.95.87 1.01-1.6 2.07-3.5 3.02-7.73.31-1.29.67-2.02 2.27-2.02 1.06 0 2.46.31 2.46 1.54 0 .48-.11.87-.48 2.1h4.26c1.6 0 2.18.95 2.18 2.24 0 2.27-1.32 2.41-1.9 2.46-.11 5.74-1.79 9.3-2.32 10.42.76.95.84 1.01 3.11 3.08.92.84 1.06 1.48 1.06 1.99 0 1.4-1.2 2.72-2.49 2.72-.64 0-1.32-.22-2.77-1.65-.87-.84-1.4-1.54-1.68-1.9-.39.42-1.26 1.34-2.91 2.55-1.26.92-1.74.98-2.18.98-.7 0-1.57-.34-2.1-1.29-.17.11-.48.34-1.01.34-.48 0-.73-.11-1.57-.64-.34-.22-.42-.25-1.32-.76-1.93 1.29-4.84 2.35-6.5 2.35-1.4 0-1.9-1.34-1.9-2.16 0-1.37 1.04-1.54 1.74-1.68.95-.17 1.88-.45 2.18-.53-.28-.11-1.54-.5-1.79-.62-.5-.22-.92-.73-.92-1.34s.17-.9.81-1.96h-.67zm4.87 0c-.11.25-.42.9-.42 1.06 0 .2.17.25.28.28.25.06 1.46.36 1.74.45.22-.31.62-.81.92-1.79zm6.3-3.7c1.06 0 1.99.42 1.99 1.88 0 1.76-1.43 1.79-1.93 1.82-.17 1.04-.53 2.02-1.15 3 .98.36 1.26.5 1.54.95.17-.11 1.04-.67 1.23-.78.98-.64 1.74-1.2 2.8-2.41-1.04-2.13-1.34-3.67-1.6-4.9-.53.5-1.12.62-1.46.62-1.04 0-2.24-.84-2.46-2.02-.53.08-1.06-.06-2.21-1.51v.78c0 .87-.17 1.6-1.26 1.85 0 .31-.08.62-.14.73h4.65zm6.16-6.19c.06 1.04.25 3.3.92 5.43.62-2.46.64-4.23.67-5.43h-1.6z" fill="#004da0"/><path d="m203.62 31.86c-.14.03-.28.06-.45.06-1.54 0-1.82-1.4-1.9-1.99-.45.84-1.23 1.23-1.88 1.23-.73 0-1.29-.53-1.74-1.4v5.99c0 1.71-.81 2.24-2.38 2.24-2.02 0-2.07-1.62-2.07-2.24v-4.06c-.45.84-1.06 1.99-2.16 1.99-1.15 0-2.41-1.23-2.41-2.72 0-.78.22-1.09 1.34-2.46.95-1.18 2.38-3.16 3.19-4.7h-1.96c-1.65 0-2.3-.7-2.3-2.24 0-1.99 1.76-1.99 2.3-1.99h1.99v-6.22c0-1.68.78-2.24 2.38-2.24 1.99 0 2.07 1.57 2.07 2.24v6.22h1.62c1.65 0 2.3.7 2.3 2.24 0 1.99-1.76 1.99-2.3 1.99h-1.46c.76 1.18 1.65 2.3 2.16 2.86 1.12 1.23 1.23 1.34 1.4 1.74.2-.48.45-.87 1.48-1.06l5.85-1.06v-9.69c-.11.9-.95 2.07-2.24 2.07-.53 0-.81-.17-1.04-.34-.22-.2-1.23-1.18-1.46-1.4-1.12-1.04-1.29-1.2-1.29-1.93 0-1.2.92-2.21 2.27-2.21.76 0 1.23.34 2.49 1.4.92.78 1.18 1.09 1.26 1.65v-2.58c0-1.82.95-2.24 2.32-2.24 1.79 0 2.52.5 2.52 2.24v12.12c2.35-.34 2.38 2.18 2.38 2.66 0 .92-.25 1.62-1.76 1.9l-.62.11v5.57c0 1.74-.78 2.27-2.3 2.27-2.02 0-2.55-.78-2.55-2.27v-4.68l-5.1.92zm-11.48-17.98c.22.7.84 2.86.84 3.56 0 1.01-1.09 1.48-1.93 1.48-1.09 0-1.26-.73-1.46-1.65-.22-1.06-.25-1.15-.59-2.16-.22-.67-.25-.92-.25-1.12 0-.98 1.29-1.37 1.96-1.37.92 0 1.18.53 1.43 1.26zm10.16.2c0 .48-.34 2.16-.81 3.44-.36 1.04-.76 1.4-1.51 1.4s-1.93-.5-1.93-1.51c0-.31.06-.48.22-1.09.2-.67.42-1.68.59-2.46.08-.45.28-1.29 1.43-1.29 1.26 0 2.02.64 2.02 1.51zm4.45 7.14c.87.73 1.26 1.12 1.26 1.9 0 1.29-1.23 2.55-2.38 2.55-.76 0-1.01-.25-2.16-1.34-.17-.17-1.04-.92-1.18-1.09-.28-.25-.48-.56-.48-1.12 0-1.29 1.04-2.41 2.18-2.41.78 0 1.23.22 2.74 1.51z" fill="#004da0"/><path d="m242.68 12.91c.78 0 2.21.11 2.21 1.96 0 1.57-.62 2.21-2.32 2.21v2.32h.81c.98 0 2.21.22 2.21 1.99 0 1.46-.42 2.27-2.21 2.27h-.81v2.35c.67 0 2.32 0 2.32 1.96 0 1.43-.48 2.24-2.21 2.24h-21c-.56 0-2.24-.03-2.24-2.02 0-1.57.73-2.18 2.24-2.18h1.12v-2.35h-1.79c-.76 0-2.24-.11-2.24-1.99 0-1.46.48-2.27 2.24-2.27h2.21v-1.34c-1.2 1.12-1.74 1.32-2.41 1.32-1.32 0-2.21-1.4-2.21-2.38 0-.87.28-1.09 1.93-2.46.9-.76 1.51-1.51 2.44-2.6.7-.87 1.46-.87 1.68-.87 1.01 0 2.41.7 2.44 1.85h15.6zm-17.53 19.18c0 .95-.7 2.46-1.04 3.14-1.04 2.1-1.48 2.6-2.66 2.6s-2.63-.76-2.63-2.24c0-.53.03-.62.92-2.04.36-.59.7-1.29 1.01-1.93.36-.78.67-1.37 1.96-1.37.28 0 2.44.14 2.44 1.85zm5.77-.06c.11.76.28 2.69.28 3.78 0 .67 0 2.13-2.52 2.13-1.29 0-2.21-.39-2.21-2.16v-1.6c0-.28-.06-1.6-.06-1.85 0-1.43.9-1.96 2.21-1.96 1.09 0 2.13.25 2.3 1.65zm-2.3-14.95h-1.4v2.32h1.4zm0 6.58h-1.4v2.35h1.4zm4.93-6.58h-1.43v2.32h1.43zm0 6.58h-1.43v2.35h1.43zm4.12 9.35c.64 1.96.67 2.49.67 2.83 0 1.65-1.88 1.88-2.74 1.88-1.85 0-2.02-1.01-2.21-2.44-.08-.5-.64-2.74-.64-3.22 0-1.51 1.82-1.68 2.46-1.68 1.62 0 1.79.5 2.46 2.63zm.78-15.93h-1.4v2.32h1.4zm0 6.58h-1.4v2.35h1.4zm5.88 8.79c.42.78 1.2 2.3 1.2 3 0 1.74-2.1 2.21-2.8 2.21-1.37 0-1.62-.64-2.46-2.72-.11-.25-.67-1.43-.78-1.68-.08-.2-.25-.62-.25-1.04 0-1.65 1.96-1.96 2.44-1.96 1.46 0 1.6.22 2.66 2.18z" fill="#004da0"/><path d="m263.58 31.86c-.14.03-.28.06-.45.06-1.54 0-1.82-1.4-1.9-1.99-.45.84-1.23 1.23-1.88 1.23-.73 0-1.29-.53-1.74-1.4v5.99c0 1.71-.81 2.24-2.38 2.24-2.02 0-2.07-1.62-2.07-2.24v-4.06c-.45.84-1.06 1.99-2.16 1.99-1.15 0-2.41-1.23-2.41-2.72 0-.78.22-1.09 1.34-2.46.95-1.18 2.38-3.16 3.19-4.7h-1.96c-1.65 0-2.3-.7-2.3-2.24 0-1.99 1.76-1.99 2.3-1.99h1.99v-6.22c0-1.68.78-2.24 2.38-2.24 1.99 0 2.07 1.57 2.07 2.24v6.22h1.62c1.65 0 2.3.7 2.3 2.24 0 1.99-1.76 1.99-2.3 1.99h-1.46c.76 1.18 1.65 2.3 2.16 2.86 1.12 1.23 1.23 1.34 1.4 1.74.2-.48.45-.87 1.48-1.06l5.85-1.06v-9.69c-.11.9-.95 2.07-2.24 2.07-.53 0-.81-.17-1.04-.34-.22-.2-1.23-1.18-1.46-1.4-1.12-1.04-1.29-1.2-1.29-1.93 0-1.2.92-2.21 2.27-2.21.76 0 1.23.34 2.49 1.4.92.78 1.18 1.09 1.26 1.65v-2.58c0-1.82.95-2.24 2.32-2.24 1.79 0 2.52.5 2.52 2.24v12.12c2.35-.34 2.38 2.18 2.38 2.66 0 .92-.25 1.62-1.76 1.9l-.62.11v5.57c0 1.74-.78 2.27-2.3 2.27-2.02 0-2.55-.78-2.55-2.27v-4.68l-5.1.92zm-11.48-17.98c.22.7.84 2.86.84 3.56 0 1.01-1.09 1.48-1.93 1.48-1.09 0-1.26-.73-1.46-1.65-.22-1.06-.25-1.15-.59-2.16-.22-.67-.25-.92-.25-1.12 0-.98 1.29-1.37 1.96-1.37.92 0 1.18.53 1.43 1.26zm10.16.2c0 .48-.34 2.16-.81 3.44-.36 1.04-.76 1.4-1.51 1.4s-1.93-.5-1.93-1.51c0-.31.06-.48.22-1.09.2-.67.42-1.68.59-2.46.08-.45.28-1.29 1.43-1.29 1.26 0 2.02.64 2.02 1.51zm4.45 7.14c.87.73 1.26 1.12 1.26 1.9 0 1.29-1.23 2.55-2.38 2.55-.76 0-1.01-.25-2.16-1.34-.17-.17-1.04-.92-1.18-1.09-.28-.25-.48-.56-.48-1.12 0-1.29 1.04-2.41 2.18-2.41.78 0 1.23.22 2.74 1.51z" fill="#004da0"/></svg>