<svg xmlns="http://www.w3.org/2000/svg" xmlns:xlink="http://www.w3.org/1999/xlink" viewBox="0 0 285.4759 47.82146"><defs><style>.cls-1{fill:url(#名称未設定グラデーション_17);}.cls-2{fill:#1181bf;}</style><linearGradient id="名称未設定グラデーション_17" x1="59.41361" y1="107.23507" x2="226.06229" y2="-59.41361" gradientUnits="userSpaceOnUse"><stop offset="0" stop-color="#f0b672"/><stop offset="0.15779" stop-color="#f9e3af"/><stop offset="0.35025" stop-color="#fcecd8"/><stop offset="0.81018" stop-color="#f9e3af"/><stop offset="0.98088" stop-color="#f0b672"/></linearGradient></defs><g id="レイヤー_2" data-name="レイヤー 2"><g id="design"><polygon class="cls-1" points="285.476 47.821 0 47.821 16.612 23.911 0 0 285.476 0 268.864 23.911 285.476 47.821"/><path class="cls-2" d="M37.83561,18a1.85152,1.85152,0,0,1-1.81739-1.81738v-.7334a1.85152,1.85152,0,0,1,1.81739-1.81738H50.58854a1.69656,1.69656,0,0,1,1.25878.542,1.77482,1.77482,0,0,1,.52637,1.27539v.7334a6.75772,6.75772,0,0,1-.89258,3.34765,87.37082,87.37082,0,0,0-7.01465,15.65332,2.54814,2.54814,0,0,1-2.39062,1.72168h-2.168a1.218,1.218,0,0,1-1.05176-.542,1.17371,1.17371,0,0,1-.12793-1.17969,96.75309,96.75309,0,0,1,8.44825-16.99218.18379.18379,0,0,0,.06445-.12793A.05667.05667,0,0,0,47.17643,18Z"/><path class="cls-2" d="M53.16666,38.18066a1.07427,1.07427,0,0,1-.97168-.542,1.13073,1.13073,0,0,1-.08008-1.11621L61.74283,15.29a2.91659,2.91659,0,0,1,1.05176-1.19531,2.67225,2.67225,0,0,1,1.499-.46289h1.11524a1.10661,1.10661,0,0,1,1.00488.542A1.08135,1.08135,0,0,1,66.46158,15.29L56.83365,36.52246a2.81726,2.81726,0,0,1-2.55078,1.6582Z"/><path class="cls-2" d="M71.26822,36.90527a1.85153,1.85153,0,0,1-1.81738-1.81738v-.7334a3.50768,3.50768,0,0,1,1.43457-2.90039,46.82083,46.82083,0,0,0,7.09375-6.4082,6.99513,6.99513,0,0,0,1.7373-4.30469q0-2.93262-3.251-2.93262a14.22111,14.22111,0,0,0-4.84668,1.084,1.226,1.226,0,0,1-1.14746-.12793,1.11134,1.11134,0,0,1-.542-.98828V16.4375a2.44337,2.44337,0,0,1,.47851-1.48242,2.30405,2.30405,0,0,1,1.27539-.877,21.87283,21.87283,0,0,1,5.5791-.76464,8.73387,8.73387,0,0,1,5.94532,1.833,6.41478,6.41478,0,0,1,2.08886,5.085A9.17945,9.17945,0,0,1,83.527,25.57129a41.8628,41.8628,0,0,1-6.90234,6.87109.08918.08918,0,0,0-.03223.06348c0,.02148.01074.03125.03223.03125h6.98144a1.69716,1.69716,0,0,1,1.25977.542,1.77391,1.77391,0,0,1,.52539,1.27539v.7334a1.77067,1.77067,0,0,1-.52539,1.27539,1.69354,1.69354,0,0,1-1.25977.542Z"/><path class="cls-2" d="M96.42545,29.25391a7.838,7.838,0,0,1-5.81836-2.04,8.07093,8.07093,0,0,1-2.02441-5.93067,7.41316,7.41316,0,0,1,2.40722-5.81836,9.47133,9.47133,0,0,1,6.55176-2.15136,8.515,8.515,0,0,1,6.64648,2.582q2.34375,2.58252,2.34375,7.62011,0,13.708-10.4248,13.708a22.85809,22.85809,0,0,1-3.57129-.28613,1.97366,1.97366,0,0,1-1.25879-.75,2.21152,2.21152,0,0,1-.49414-1.418v-.57422a1.25877,1.25877,0,0,1,.542-1.06836,1.40559,1.40559,0,0,1,1.21094-.23828,15.25465,15.25465,0,0,0,3.37988.41406,5.18374,5.18374,0,0,0,3.80957-1.37109,5.82242,5.82242,0,0,0,1.51465-4.0166.02888.02888,0,0,0-.03222-.03223h-.03223A7.59705,7.59705,0,0,1,96.42545,29.25391Zm1.11621-12.01953a3.62826,3.62826,0,0,0-2.75781,1.05273A4.02631,4.02631,0,0,0,93.779,21.1875a4.87173,4.87173,0,0,0,.98829,3.31641,3.51181,3.51181,0,0,0,2.77441,1.11523,3.47437,3.47437,0,0,0,2.75781-1.14746,4.83714,4.83714,0,0,0,1.00391-3.28418,3.94605,3.94605,0,0,0-1.05176-2.86914A3.61645,3.61645,0,0,0,97.54166,17.23438Z"/><path class="cls-2" d="M118.64713,40.667a4.2364,4.2364,0,0,1-3.125-1.24316,20.15087,20.15087,0,0,1-4.36719-6.45606,19.1615,19.1615,0,0,1-1.53027-7.54,18.54559,18.54559,0,0,1,1.57812-7.46,22.05188,22.05188,0,0,1,4.31934-6.5039,4.11944,4.11944,0,0,1,3.125-1.27442h.86035a.728.728,0,0,1,.71777.49414.76528.76528,0,0,1-.14355.876,20.78182,20.78182,0,0,0-5.51563,13.86816,20.00009,20.00009,0,0,0,5.4834,13.93262.70976.70976,0,0,1,.15918.8291.69821.69821,0,0,1-.70117.47754Z"/><path class="cls-2" d="M126.87174,20.64551l-.28711-.57324a1.71044,1.71044,0,0,1-.04785-1.38672,1.94393,1.94393,0,0,1,.9414-1.03614,58.47243,58.47243,0,0,0,9.21289-5.54785,5.3495,5.3495,0,0,1,3.252-1.084h2.86914a5.25969,5.25969,0,0,1,3.25195,1.084,56.68258,56.68258,0,0,0,9.18164,5.54785,1.94591,1.94591,0,0,1,.94043,1.03614,1.79331,1.79331,0,0,1-.01562,1.38672l-.28711.57324a1.7989,1.7989,0,0,1-1.00391.97265,1.70647,1.70647,0,0,1-1.38672-.04785q-1.27587-.57421-3.69824-1.84863-.22411-.15968-.22363.127a.23951.23951,0,0,0,.03222.09571v.28711a1.69506,1.69506,0,0,1-.542,1.25976,1.77225,1.77225,0,0,1-1.27539.52539h-3.53906q-.25488,0-.25488.28711v1.94434q0,.2871.25488.28711h8.0664a1.77488,1.77488,0,0,1,1.2754.52636,1.693,1.693,0,0,1,.542,1.25879v.28711a1.85152,1.85152,0,0,1-1.81739,1.81738h-8.0664q-.25488,0-.25488.28711v6.376q0,.28712.25488.28711h9.3418a1.77484,1.77484,0,0,1,1.27539.52637,1.69658,1.69658,0,0,1,.542,1.25879v.44629a1.69716,1.69716,0,0,1-.542,1.25976,1.77387,1.77387,0,0,1-1.27539.52539h-24.4209a1.77061,1.77061,0,0,1-1.27539-.52539,1.69355,1.69355,0,0,1-.542-1.25976v-.44629a1.693,1.693,0,0,1,.542-1.25879,1.77157,1.77157,0,0,1,1.27539-.52637h9.34082q.25488,0,.25488-.28711v-6.376q0-.2871-.25488-.28711H130.443a1.85154,1.85154,0,0,1-1.81739-1.81738v-.28711a1.68938,1.68938,0,0,1,.542-1.25879,1.7716,1.7716,0,0,1,1.27539-.52636h8.06543q.25488,0,.25488-.28711V22.30371q0-.28711-.25488-.28711h-3.53907a1.76681,1.76681,0,0,1-1.27441-.52539,1.69149,1.69149,0,0,1-.542-1.25976v-.31836a.09539.09539,0,0,0,.03125-.06446.13524.13524,0,0,0-.0791-.11133.1422.1422,0,0,0-.14356-.01562q-2.42432,1.27442-3.69824,1.84863a1.7067,1.7067,0,0,1-1.38672.04785A1.7976,1.7976,0,0,1,126.87174,20.64551Zm8.28906,14.251a1.83914,1.83914,0,0,1-1.38672.09571,1.74977,1.74977,0,0,1-1.06836-.89258q-.41454-.76465-1.24316-2.23145a1.76844,1.76844,0,0,1-.207-1.37109,1.60547,1.60547,0,0,1,.81347-1.084l.76465-.44629A1.75641,1.75641,0,0,1,134.236,28.792a1.83292,1.83292,0,0,1,1.11621.84473q.79688,1.30663,1.40332,2.4541a1.67881,1.67881,0,0,1,.11133,1.37109,1.81317,1.81317,0,0,1-.90918,1.05274Zm6.02539-20.53125A48.30963,48.30963,0,0,1,135.9899,18a.10754.10754,0,0,0-.03222.0791c0,.03223.02148.04785.06445.04785H146.734c.042,0,.06348-.01562.06348-.04785A.10751.10751,0,0,0,146.76529,18a48.40766,48.40766,0,0,1-5.19629-3.63477A.24.24,0,0,0,141.18619,14.36523Zm8.48047,14.47461.79688.38184a1.75221,1.75221,0,0,1,.9248,1.02051,1.71378,1.71378,0,0,1-.06348,1.37109q-.79687,1.49853-1.43457,2.51856a1.71982,1.71982,0,0,1-1.13183.8125,1.79946,1.79946,0,0,1-1.38672-.207l-.66992-.38281a1.71064,1.71064,0,0,1-.8125-1.11523,1.76907,1.76907,0,0,1,.207-1.3711q.92432-1.65673,1.17969-2.168a1.87742,1.87742,0,0,1,1.03613-.92481A1.67258,1.67258,0,0,1,149.66666,28.83984Z"/><path class="cls-2" d="M167.87076,25.42773a20.78667,20.78667,0,0,0-5.51562-13.86816.7653.7653,0,0,1-.14356-.876.728.728,0,0,1,.71778-.49414h.86035a4.12092,4.12092,0,0,1,3.125,1.27442,22.07075,22.07075,0,0,1,4.31933,6.5039,18.54543,18.54543,0,0,1,1.57813,7.46,19.16151,19.16151,0,0,1-1.53028,7.54,20.15084,20.15084,0,0,1-4.36718,6.45606,4.238,4.238,0,0,1-3.125,1.24316h-.86035a.69822.69822,0,0,1-.70118-.47754.7083.7083,0,0,1,.15918-.8291A20.00441,20.00441,0,0,0,167.87076,25.42773Z"/><path class="cls-2" d="M178.13639,21.1875a1.68786,1.68786,0,0,1-1.25879-.542,1.76778,1.76778,0,0,1-.52637-1.27442V18.6377a1.77161,1.77161,0,0,1,.52637-1.2754,1.69145,1.69145,0,0,1,1.25879-.542h3.37988a.31158.31158,0,0,0,.31836-.28711q.09522-.41309.76562-4.14453a1.93386,1.93386,0,0,1,.73243-1.24316,1.88288,1.88288,0,0,1,1.37109-.41406l.9248.06347a1.71869,1.71869,0,0,1,1.21192.6377,1.49743,1.49743,0,0,1,.35058,1.27539q-.19189,1.30664-.63769,3.85742-.06446.25488.22266.25488h1.53027q2.231,0,3.23633.01563a6.06285,6.06285,0,0,1,2.10449.44629,3.537,3.537,0,0,1,1.38672.79687,5.62586,5.62586,0,0,1,.62109,1.80176,11.85773,11.85773,0,0,1,.335,2.69434v4.19238q0,11.82714-5.77051,11.82715a21.18739,21.18739,0,0,1-5.13281-.82911,1.68963,1.68963,0,0,1-1.09961-.86035,1.9174,1.9174,0,0,1-.17578-1.43457l.22363-.89258a1.64548,1.64548,0,0,1,.82911-1.05175,1.79973,1.79973,0,0,1,1.37011-.16016,14.38322,14.38322,0,0,0,2.90137.57422.70268.70268,0,0,0,.49414-.23926,2.396,2.396,0,0,0,.46191-.8291,8.54967,8.54967,0,0,0,.38282-1.46582q.15966-.87744.27148-2.28027.11133-1.40185.11133-3.15625a14.99941,14.99941,0,0,0-.30273-4.17578q-.30322-.605-2.05665-.60645h-2.61425a.32065.32065,0,0,0-.35059.25586,127.36535,127.36535,0,0,1-4.71875,15.749,1.80614,1.80614,0,0,1-.94043,1.03614,1.78142,1.78142,0,0,1-1.418.0791l-.86133-.25489a1.62621,1.62621,0,0,1-1.01953-.9082,1.74946,1.74946,0,0,1-.06445-1.38672,132.81528,132.81528,0,0,0,4.27246-14.34668c.042-.14843-.03223-.22363-.22363-.22363ZM200.5485,30.083q-1.72119-6.40869-3.9209-12.46582a1.67219,1.67219,0,0,1,1.14746-2.13574l1.21191-.35059a1.93979,1.93979,0,0,1,1.418.15918,1.86505,1.86505,0,0,1,.94141,1.084q2.19873,6.21679,3.9209,12.56055a1.70028,1.70028,0,0,1-.19141,1.35547,1.64578,1.64578,0,0,1-1.11523.8125l-1.21192.28711a1.82131,1.82131,0,0,1-1.37109-.22266A1.76856,1.76856,0,0,1,200.5485,30.083Z"/><path class="cls-2" d="M210.69107,29.19043a1.77061,1.77061,0,0,1-1.14843-.79785,1.84927,1.84927,0,0,1-.28711-1.37012q.57422-3.1875,1.02051-6.34473a1.9916,1.9916,0,0,1,.70117-1.24316,1.77828,1.77828,0,0,1,1.33886-.41406l1.43555.12695a1.72592,1.72592,0,0,1,1.56152,1.94531q-.25488,1.97608-.50976,3.60254v.03125h.06348a16.38892,16.38892,0,0,1,8.92675-2.90136q4.90869,0,7.17285,1.88183,2.26465,1.88087,2.26368,5.86524a7.60665,7.60665,0,0,1-3.61817,6.66308q-3.61817,2.42286-10.377,2.42383-2.96484,0-5.96191-.28711a1.69733,1.69733,0,0,1-1.21192-.6543,1.78234,1.78234,0,0,1-.41406-1.32226l.06348-.76563a1.6941,1.6941,0,0,1,.65332-1.21093,1.78664,1.78664,0,0,1,1.32324-.415q3.34716.2871,5.54785.28711a11.81646,11.81646,0,0,0,6.02539-1.2754,3.86948,3.86948,0,0,0,2.13574-3.44335q0-3.41016-4.36719-3.41114-3.09375,0-7.93847,2.71a4.49936,4.49936,0,0,1-3.31641.542Zm4.75-16.48242q6.375.66943,12.01856.76465a1.90867,1.90867,0,0,1,1.292.542A1.70352,1.70352,0,0,1,229.277,15.29v.7334a1.79555,1.79555,0,0,1-1.78515,1.78515q-6.50391-.0952-12.59278-.73339a1.67749,1.67749,0,0,1-1.21191-.66895,1.726,1.726,0,0,1-.38184-1.33984l.09473-.76465a1.73784,1.73784,0,0,1,.70215-1.19531A1.867,1.867,0,0,1,215.44107,12.708Z"/><path class="cls-2" d="M244.74576,29.57227a1.75372,1.75372,0,0,1-1.291-.52539,2.00111,2.00111,0,0,1-.58985-1.291l-.63769-12.30664a1.68766,1.68766,0,0,1,.47754-1.27539,1.647,1.647,0,0,1,1.24414-.542H246.818a1.64643,1.64643,0,0,1,1.24316.542,1.69225,1.69225,0,0,1,.47852,1.27539l-.60645,12.30664a1.96693,1.96693,0,0,1-.60547,1.291,1.80816,1.80816,0,0,1-1.30664.52539Zm1.59375,2.55078a1.85153,1.85153,0,0,1,1.81738,1.81738v1.14746a1.85153,1.85153,0,0,1-1.81738,1.81738h-1.91308a1.85154,1.85154,0,0,1-1.81739-1.81738V33.94043a1.85154,1.85154,0,0,1,1.81739-1.81738Z"/></g></g></svg>