<svg viewBox="0 0 348.33 128" xmlns="http://www.w3.org/2000/svg"><path d="m317.83 0h-287.32c-1.17 0-2.33 0-3.5 0-.98 0-1.95.02-2.94.04-2.15.03-4.29.21-6.41.57s-4.17 1.04-6.08 2.01c-1.91.98-3.66 2.25-5.18 3.77-1.53 1.52-2.8 3.27-3.77 5.19s-1.65 3.97-2 6.09c-.36 2.12-.56 4.26-.58 6.41-.03.98-.03 1.97-.05 2.95v73.96c.02.99.02 1.96.05 2.95.03 2.15.22 4.29.57 6.41s1.03 4.18 2 6.09 2.24 3.66 3.77 5.17c1.51 1.53 3.26 2.8 5.18 3.77s3.97 1.65 6.08 2.02c2.12.35 4.26.54 6.41.57.99.02 1.96.03 2.94.03h3.5 287.33 3.47c.98 0 1.98-.01 2.95-.03 2.14-.03 4.28-.22 6.4-.57 2.12-.37 4.18-1.05 6.11-2.02 1.92-.97 3.66-2.25 5.18-3.77 1.52-1.51 2.8-3.26 3.78-5.17.97-1.92 1.63-3.97 1.98-6.09.36-2.12.56-4.26.59-6.41.01-.99.01-1.96.01-2.95.02-1.16.02-2.32.02-3.5v-66.97c0-1.17 0-2.33-.02-3.49 0-.98 0-1.97-.01-2.95-.04-2.15-.24-4.29-.59-6.41s-1.02-4.17-1.98-6.09c-1.98-3.85-5.11-6.98-8.96-8.96-1.92-.97-3.98-1.65-6.11-2.01-2.12-.35-4.26-.54-6.4-.57-.98-.02-1.98-.03-2.95-.04-1.15 0-2.32 0-3.47 0z"/><path d="m27.02 125.2c-.97 0-1.93-.01-2.89-.03-2-.03-4-.2-5.98-.52-1.84-.32-3.63-.91-5.3-1.75-1.65-.84-3.16-1.94-4.47-3.25-1.32-1.3-2.43-2.81-3.27-4.47-.85-1.67-1.43-3.46-1.74-5.3-.33-1.98-.51-3.99-.53-6-.02-.67-.05-2.92-.05-2.92v-73.94s.03-2.21.05-2.86c.02-2.01.2-4.01.53-5.99.31-1.85.89-3.64 1.74-5.32.83-1.66 1.93-3.17 3.25-4.47 1.32-1.32 2.83-2.42 4.49-3.27 1.67-.84 3.45-1.43 5.29-1.74 1.98-.32 3.99-.5 6-.52l2.89-.04h294.25l2.92.04c1.99.02 3.98.2 5.95.52 1.86.32 3.66.91 5.35 1.75 3.32 1.71 6.02 4.42 7.73 7.74.83 1.66 1.41 3.44 1.71 5.28.33 2 .52 4.02.56 6.04v2.85c.03 1.2.03 2.34.03 3.49v66.97c0 1.16 0 2.3-.03 3.44 0 1.04 0 1.99-.01 2.98-.04 1.99-.22 3.97-.55 5.93-.3 1.86-.88 3.66-1.73 5.34-.84 1.64-1.94 3.14-3.25 4.43-1.31 1.32-2.82 2.43-4.48 3.27-1.68.85-3.48 1.44-5.34 1.76-1.98.32-3.98.5-5.98.52-.94.02-1.92.03-2.87.03h-294.27z" fill="#fff"/><path d="m79.99 63.65c.07-5.65 3.03-10.86 7.84-13.82-3.05-4.35-7.97-7.01-13.28-7.18-5.59-.59-11.01 3.34-13.85 3.34s-7.29-3.29-12.01-3.19c-6.21.2-11.86 3.65-14.88 9.08-6.44 11.14-1.64 27.52 4.53 36.52 3.08 4.41 6.69 9.34 11.41 9.16 4.62-.19 6.34-2.94 11.91-2.94s7.14 2.94 11.95 2.83c4.95-.08 8.07-4.43 11.05-8.88 2.22-3.14 3.92-6.62 5.05-10.29-5.88-2.49-9.71-8.25-9.71-14.64z"/><path d="m70.9 36.73c2.7-3.24 4.03-7.41 3.71-11.62-4.13.43-7.94 2.41-10.67 5.52-2.7 3.08-4.07 7.1-3.81 11.19 4.18.04 8.15-1.83 10.77-5.09z"/><path d="m131.74 52.97h-12.97l-3.11 9.19h-5.49l12.28-34.01h5.71l12.28 34.01h-5.59zm-11.62-4.24h10.28l-5.07-14.92h-.14z"/><path d="m166.95 49.77c0 7.71-4.12 12.66-10.35 12.66-3.22.17-6.25-1.52-7.8-4.34h-.12v12.28h-5.09v-33h4.93v4.12h.09c1.62-2.8 4.66-4.49 7.9-4.38 6.29 0 10.44 4.98 10.44 12.66zm-5.23 0c0-5.02-2.59-8.32-6.55-8.32s-6.51 3.37-6.51 8.32 2.62 8.34 6.51 8.34 6.55-3.28 6.55-8.34z"/><path d="m194.25 49.77c0 7.71-4.13 12.66-10.35 12.66-3.22.17-6.25-1.52-7.8-4.34h-.12v12.28h-5.09v-33h4.93v4.12h.09c1.62-2.8 4.66-4.49 7.9-4.38 6.29 0 10.44 4.98 10.44 12.66zm-5.23 0c0-5.02-2.59-8.32-6.55-8.32s-6.51 3.37-6.51 8.32 2.62 8.34 6.51 8.34 6.55-3.28 6.55-8.34z"/><path d="m212.29 52.69c.38 3.37 3.65 5.59 8.13 5.59s7.38-2.21 7.38-5.26c0-2.64-1.86-4.22-6.27-5.3l-4.41-1.06c-6.25-1.51-9.15-4.43-9.15-9.17 0-5.87 5.11-9.9 12.37-9.9s12.12 4.03 12.28 9.9h-5.14c-.31-3.39-3.11-5.44-7.21-5.44s-6.91 2.07-6.91 5.09c0 2.4 1.79 3.82 6.18 4.9l3.75.92c6.98 1.65 9.88 4.45 9.88 9.43 0 6.36-5.07 10.35-13.13 10.35-7.54 0-12.64-3.89-12.97-10.04h5.21z"/><path d="m244.16 31.5v5.87h4.72v4.03h-4.72v13.67c0 2.12.94 3.11 3.02 3.11.56 0 1.12-.05 1.67-.12v4.01c-.93.17-1.88.25-2.83.24-5.02 0-6.98-1.89-6.98-6.7v-14.21h-3.61v-4.03h3.61v-5.87h5.11z"/><path d="m251.6 49.77c0-7.8 4.6-12.71 11.76-12.71s11.76 4.9 11.76 12.71-4.55 12.71-11.76 12.71-11.76-4.88-11.76-12.71zm18.34 0c0-5.35-2.45-8.51-6.58-8.51s-6.58 3.18-6.58 8.51 2.45 8.51 6.58 8.51 6.58-3.14 6.58-8.51z"/><path d="m279.33 37.37h4.85v4.22h.12c.68-2.72 3.17-4.59 5.96-4.48.59 0 1.17.06 1.74.19v4.76c-.74-.23-1.51-.33-2.29-.31-2.83-.11-5.22 2.09-5.33 4.92-.01.26 0 .53.03.79v14.71h-5.09v-24.8z"/><path d="m315.48 54.88c-1.16 4.85-5.72 8.09-10.68 7.59-7.21 0-11.69-4.83-11.69-12.59s4.5-12.82 11.48-12.82 11.18 4.71 11.18 12.23v1.74h-17.51v.31c-.31 3.55 2.31 6.69 5.86 7 .27.02.54.03.81.02 2.47.23 4.8-1.19 5.73-3.49h4.83zm-17.21-7.4h12.4c.18-3.29-2.33-6.1-5.62-6.29-.15 0-.31-.01-.46 0-3.47-.02-6.29 2.77-6.32 6.24z"/><path d="m116.6 98.6.21-2.62c.98.32 2.01.48 3.04.48.93 0 1.3-.09 1.75-.72 1.1-2.31 1.58-4.86 1.38-7.41 0-2.71-.84-3.5-2.98-3.5-.48 0-1.02.03-1.63.06-1.15 4.68-3.06 9.14-5.66 13.19l-2.5-1.36c2.44-3.51 4.23-7.43 5.27-11.57-1.65.18-3.29.45-4.91.82l-.54-2.65c1.84-.33 4.04-.63 6.08-.81.42-2 .73-4.02.93-6.06l2.95.33c-.27 1.84-.6 3.68-1.02 5.48h1.18c3.83 0 5.66 1.9 5.66 5.93.17 3.08-.43 6.15-1.75 8.95-.71 1.31-2.13 2.07-3.62 1.93-1.3 0-2.59-.17-3.86-.48zm9.7-16.24 2.2-1.48c3.05 2.94 4.89 6.92 5.15 11.15l-2.89.45c-.04-3.84-1.65-7.5-4.46-10.12z"/><path d="m143.64 99.02-.6-2.71c.75.06 1.75.09 2.35.09 5.96 0 8.22-1.68 8.22-4.19 0-1.99-1.3-3.13-4.19-3.13-3.15.29-6.09 1.73-8.25 4.04l-2.32-1.02c-.44-3.95.46-7.93 2.56-11.3l2.68.87c-1.67 2.26-2.48 5.03-2.29 7.83 2.42-1.7 5.27-2.68 8.22-2.8 4.04 0 6.54 2.08 6.54 5.45 0 4.28-3.38 6.9-11.48 6.9-.39 0-.96-.03-1.45-.03zm-2.8-20 .75-2.65c4.01.61 7.97 1.52 11.84 2.71l-.72 2.62c-3.87-1.25-7.84-2.15-11.87-2.68z"/><path d="m165.29 96.94c3.11-1.02 5.9-2.83 8.1-5.24-1.75-1.45-3.63-2.72-5.63-3.79l1.66-2.08c2.02 1.02 3.93 2.23 5.72 3.61 1.44-2.1 2.44-4.47 2.95-6.96h-7.68c-1.77 2.86-3.98 5.41-6.57 7.56l-2.2-1.9c3.72-3.07 6.6-7.03 8.38-11.51l2.89.69c-.33.84-.66 1.72-1.05 2.53h7.47l2.14.99c-1.06 8.33-6.6 15.41-14.43 18.44l-1.75-2.35zm12.71-21.03 1.69-.82c.86 1.15 1.57 2.39 2.14 3.71l-1.9.88c-.48-1.33-1.13-2.6-1.93-3.77zm3.77-.3 1.72-.81c.87 1.18 1.61 2.46 2.2 3.8l-1.9.81c-.5-1.35-1.18-2.62-2.02-3.8z"/><path d="m194.95 99.17-1.54-2.44c6.43-1.03 11.03-6.78 10.6-13.28h-12.65v6.06h-3.04v-8.62h7.56v-4.43h3.04v4.43h5.63l2.77.78c-.36 8.56-3.22 15.09-12.38 17.5z"/><path d="m213.19 81.09 1.69-2.47c2.64 1.2 5.12 2.71 7.41 4.49l-1.93 2.59c-2.2-1.82-4.6-3.37-7.17-4.61zm.57 14.85c7.48-1.13 13.95-5.79 17.38-12.53l1.99 2.23c-3.72 6.95-10.45 11.79-18.23 13.1l-1.15-2.8z"/><path d="m257.83 97.39h-18.95v-17.93h18.95zm-15.97-15.16v12.38h12.95v-12.38z"/><path d="m284.96 89.35h-21.3v-3.07h21.3z"/><path d="m292.2 76.54h2.98v7.71c3.96 1.65 7.81 3.57 11.51 5.76l-1.69 2.65c-3.13-2.01-6.42-3.77-9.82-5.27v11.63h-2.98v-22.47zm7.08 1.63 1.78-.84c.87 1.28 1.59 2.65 2.14 4.1l-1.96.88c-.47-1.46-1.13-2.84-1.96-4.13zm3.43-1.3 1.81-.84c.91 1.27 1.67 2.65 2.26 4.1l-1.96.88c-.54-1.45-1.25-2.84-2.11-4.13z"/></svg>