<svg viewBox="0 0 128 128" xmlns="http://www.w3.org/2000/svg"><rect fill="#8accee" height="128" rx="25.79" width="128"/><path d="m6.55 22.62h116.51v82.87h-116.51z" fill="none"/><path d="m19.53 34.4h91.02v57.38h-91.02z" fill="#fff"/><path d="m22.15 37.02h85.78v52.14h-85.78z" fill="#8accee"/><g fill="#e7380d"><path d="m91.77 47.72c3.41 0 5.67 2.61 5.67 5.57v7.04c0 .49-.27.76-.75.76h-1.14c-.48 0-.75-.27-.75-.76v-7.04c0-1.55-1.1-3.13-3.03-3.13s-3.02 1.58-3.02 3.13v7.04c0 .49-.27.76-.75.76h-1.14c-.48 0-.76-.27-.76-.76v-7.04c0-2.96 2.27-5.57 5.67-5.57"/><path d="m52.67 48.05h-1.14c-.47 0-.75.27-.75.75v7.05c0 1.55-1.11 3.12-3.02 3.12s-3.03-1.57-3.03-3.12v-6.15c0-.48-.26-.76-.75-.76h-1.14c-.48 0-.76.27-.76.76v6.15c0 1.55-1.1 3.12-3.02 3.12s-3.03-1.57-3.03-3.12v-7.05c0-.48-.27-.75-.75-.75h-1.13c-.48 0-.76.27-.76.75v7.05c0 2.95 2.27 5.57 5.67 5.57 1.86 0 3.36-.8 4.35-1.98 1 1.18 2.5 1.98 4.36 1.98 3.4 0 5.67-2.62 5.67-5.57v-7.05c0-.48-.28-.75-.76-.75"/><path d="m65.9 54.1c0 .48-.27.76-.75.76h-4.54c-.48 0-.75-.28-.75-.76v-.82c0-1.55 1.1-3.13 3.03-3.13s3.02 1.58 3.02 3.13v.82zm2.65 6.22v-7.04c0-2.96-2.27-5.57-5.67-5.57s-5.68 2.61-5.68 5.57v7.04c0 .48.28.76.76.76h1.14c.47 0 .75-.28.75-.76v-2.44c0-.48.28-.76.75-.76h4.54c.48 0 .75.28.75.76v2.44c0 .48.27.76.77.76h1.13c.47 0 .75-.28.75-.76"/><path d="m80.24 55.86c0 1.55-1.09 3.12-3.02 3.12s-3.03-1.57-3.03-3.12v-2.57c0-1.55 1.1-3.13 3.03-3.13s3.02 1.58 3.02 3.13zm2.65 0v-2.57c0-2.96-2.27-5.58-5.67-5.58s-5.67 2.61-5.67 5.58v2.57c0 2.95 2.27 5.57 5.67 5.57s5.67-2.62 5.67-5.57"/><path d="m65.29 66.16c-19.13.24-29.38 3.24-29.38 7.24s13.15 7.18 29.38 7.19c16.23 0 29.38-3.24 29.38-7.19s-10.25-7-29.38-7.24m0 10.51c-13.79 0-24.93-2.15-24.93-4.76 0-2.45 11.35-4.6 24.93-4.84 13.58.24 24.93 2.39 24.93 4.84 0 2.62-11.14 4.76-24.93 4.76"/></g></svg>