<svg viewBox="0 0 653.87 336.46" xmlns="http://www.w3.org/2000/svg"><g fill="#fff"><path d="m629.94 282.42c9.76-9.76 16.6-18.75 16.6-18.75s-8.99 6.84-18.75 16.6-16.6 18.75-16.6 18.75 8.99-6.84 18.75-16.6z"/><path d="m627.79 282.42c9.76 9.76 18.75 16.6 18.75 16.6s-6.84-8.99-16.6-18.75-18.75-16.6-18.75-16.6 6.84 8.99 16.6 18.75z"/><path d="m628.87 282.87c13.81 0 25-1.52 25-1.52s-11.19-1.52-25-1.52-25 1.52-25 1.52 11.19 1.52 25 1.52z"/><path d="m627.35 281.35c0 13.81 1.52 25 1.52 25s1.52-11.19 1.52-25-1.52-25-1.52-25-1.52 11.19-1.52 25z"/><path d="m68.94 324.98c4.69-4.69 7.97-9 7.97-9s-4.31 3.28-9 7.97-7.97 9-7.97 9 4.31-3.28 9-7.97z"/><path d="m67.91 324.98c4.69 4.69 9 7.97 9 7.97s-3.28-4.31-7.97-9-9-7.97-9-7.97 3.28 4.31 7.97 9z"/><path d="m68.43 325.19c6.63 0 12-.73 12-.73s-5.37-.73-12-.73-12 .73-12 .73 5.37.73 12 .73z"/><path d="m67.7 324.46c0 6.63.73 12 .73 12s.73-5.37.73-12-.73-12-.73-12-.73 5.37-.73 12z"/><path d="m20.86 269.29c7.81-7.81 13.28-15 13.28-15s-7.19 5.47-15 13.28-13.28 15-13.28 15 7.19-5.47 15-13.28z"/><path d="m19.14 269.29c7.81 7.81 15 13.28 15 13.28s-5.47-7.19-13.28-15-15-13.28-15-13.28 5.47 7.19 13.28 15z"/><path d="m20 269.64c11.05 0 20-1.21 20-1.21s-8.95-1.21-20-1.21-20 1.21-20 1.21 8.95 1.21 20 1.21z"/><path d="m18.79 268.43c0 11.05 1.21 20 1.21 20s1.21-8.95 1.21-20-1.21-20-1.21-20-1.21 8.95-1.21 20z"/><path d="m634.25 34.7c4.69-4.69 7.97-9 7.97-9s-4.31 3.28-9 7.97-7.97 9-7.97 9 4.31-3.28 9-7.97z"/><path d="m633.22 34.7c4.69 4.69 9 7.97 9 7.97s-3.28-4.31-7.97-9-9-7.97-9-7.97 3.28 4.31 7.97 9z"/><path d="m633.74 34.92c6.63 0 12-.73 12-.73s-5.37-.73-12-.73-12 .73-12 .73 5.37.73 12 .73z"/><path d="m633.01 34.19c0 6.63.73 12 .73 12s.73-5.37.73-12-.73-12-.73-12-.73 5.37-.73 12z"/><path d="m25.44 20.86c7.81-7.81 13.28-15 13.28-15s-7.19 5.47-15 13.28-13.28 15-13.28 15 7.19-5.47 15-13.28z"/><path d="m23.72 20.86c7.81 7.81 15 13.28 15 13.28s-5.47-7.19-13.28-15-15-13.28-15-13.28 5.47 7.19 13.28 15z"/><path d="m24.58 21.21c11.05 0 20-1.21 20-1.21s-8.95-1.21-20-1.21-20 1.21-20 1.21 8.95 1.21 20 1.21z"/><path d="m23.37 20c0 11.05 1.21 20 1.21 20s1.21-8.95 1.21-20-1.21-20-1.21-20-1.21 8.95-1.21 20z"/></g></svg>