<svg viewBox="0 0 636.4 77.01" xmlns="http://www.w3.org/2000/svg"><g fill="#fff"><path d="m592.1 60.05c6.92-6.92 11.77-13.29 11.77-13.29s-6.37 4.85-13.29 11.77-11.77 13.29-11.77 13.29 6.37-4.85 13.29-11.77z"/><path d="m590.57 60.05c6.92 6.92 13.29 11.77 13.29 11.77s-4.85-6.37-11.77-13.29-13.29-11.77-13.29-11.77 4.85 6.37 11.77 13.29z"/><path d="m591.33 60.37c9.79 0 17.72-1.08 17.72-1.08s-7.93-1.08-17.72-1.08-17.72 1.08-17.72 1.08 7.93 1.08 17.72 1.08z"/><path d="m590.26 59.29c0 9.79 1.08 17.72 1.08 17.72s1.08-7.93 1.08-17.72-1.08-17.72-1.08-17.72-1.08 7.93-1.08 17.72z"/><path d="m49.76 66.05c4.15-4.15 7.06-7.97 7.06-7.97s-3.82 2.91-7.97 7.06-7.06 7.97-7.06 7.97 3.82-2.91 7.97-7.06z"/><path d="m48.85 66.05c4.15 4.15 7.97 7.06 7.97 7.06s-2.91-3.82-7.06-7.97-7.97-7.06-7.97-7.06 2.91 3.82 7.06 7.97z"/><path d="m49.31 66.24c5.87 0 10.63-.65 10.63-.65s-4.76-.65-10.63-.65-10.63.65-10.63.65 4.76.65 10.63.65z"/><path d="m48.66 65.59c0 5.87.65 10.63.65 10.63s.65-4.76.65-10.63-.65-10.63-.65-10.63-.65 4.76-.65 10.63z"/><path d="m18.48 18.48c6.92-6.92 11.77-13.29 11.77-13.29s-6.37 4.85-13.29 11.77-11.77 13.29-11.77 13.29 6.37-4.85 13.29-11.77z"/><path d="m16.96 18.48c6.92 6.92 13.29 11.77 13.29 11.77s-4.85-6.37-11.77-13.29-13.29-11.77-13.29-11.77 4.85 6.37 11.77 13.29z"/><path d="m17.72 18.79c9.79 0 17.72-1.08 17.72-1.08s-7.93-1.08-17.72-1.08-17.72 1.09-17.72 1.09 7.93 1.08 17.72 1.08z"/><path d="m16.64 17.72c0 9.79 1.08 17.72 1.08 17.72s1.08-7.93 1.08-17.72-1.08-17.72-1.08-17.72-1.08 7.93-1.08 17.72z"/><path d="m626.23 12.65c4.15-4.15 7.06-7.97 7.06-7.97s-3.82 2.91-7.97 7.06-7.06 7.97-7.06 7.97 3.82-2.91 7.97-7.06z"/><path d="m625.32 12.65c4.15 4.15 7.97 7.06 7.97 7.06s-2.91-3.82-7.06-7.97-7.97-7.06-7.97-7.06 2.91 3.82 7.06 7.97z"/><path d="m625.77 12.84c5.87 0 10.63-.65 10.63-.65s-4.76-.65-10.63-.65-10.63.65-10.63.65 4.76.65 10.63.65z"/><path d="m625.13 12.19c0 5.87.65 10.63.65 10.63s.65-4.76.65-10.63-.65-10.63-.65-10.63-.65 4.76-.65 10.63z"/></g></svg>