<svg xmlns="http://www.w3.org/2000/svg" viewBox="0 0 61.34961 38.34351"><defs><style>.cls-1{fill:#e4006e;}.cls-2{fill:#fff;}</style></defs><g id="レイヤー_2" data-name="レイヤー 2"><g id="design"><path class="cls-1" d="M7.66895.76733h46.0127A6.90137,6.90137,0,0,1,60.583,7.6687V30.67407a6.90234,6.90234,0,0,1-6.90234,6.90234H7.668A6.90137,6.90137,0,0,1,.7666,30.675V7.66968A6.90234,6.90234,0,0,1,7.66895.76733Z"/><path class="cls-2" d="M53.68115,1.53369a6.14181,6.14181,0,0,1,6.13477,6.135V30.6748a6.14181,6.14181,0,0,1-6.13477,6.135H7.669a6.14222,6.14222,0,0,1-6.13526-6.135V7.6687A6.14222,6.14222,0,0,1,7.669,1.53369h46.0122m0-1.53369H7.669A7.66885,7.66885,0,0,0,0,7.6687V30.6748a7.66885,7.66885,0,0,0,7.669,7.66871h46.0122a7.66844,7.66844,0,0,0,7.66846-7.66871V7.6687A7.66844,7.66844,0,0,0,53.68115,0Z"/><path class="cls-2" d="M12.85059,15.02905a17.37742,17.37742,0,0,1-2.875,3.47754,1.03979,1.03979,0,0,1-.71094.32178,1.30019,1.30019,0,0,1-1.17481-1.272,1.1019,1.1019,0,0,1,.46387-.8208,13.97024,13.97024,0,0,0,2.68945-3.0586c.20118-.30566.94336-1.75488,1.12891-2.02832a.66429.66429,0,0,1,.64941-.33789,1.05217,1.05217,0,0,1,1.14356.90137A10.3223,10.3223,0,0,1,12.85059,15.02905Zm2.86035,10.48c-1.20606.09668-5.627.40235-6.1836.40235-.32422,0-.98925,0-.98925-1.07862a.84313.84313,0,0,1,.541-.90136,10.48185,10.48185,0,0,1,1.46875-.09668,64.481,64.481,0,0,0,2.78223-6.80957c.23242-.65967.40234-.86914.94336-.86914.44824,0,1.1748.20947,1.1748.90136A35.77891,35.77891,0,0,1,12.68066,23.738c1.94825-.11231,4.08106-.24121,5.91993-.499-.40137-.64355-.47852-.75634-1.5918-2.31787a1.236,1.236,0,0,1-.27832-.72461A1.13465,1.13465,0,0,1,17.875,19.16626a1.04888,1.04888,0,0,1,.86523.53125,25.88716,25.88716,0,0,1,2.62793,3.86377c.60254,1.01416.77246,1.38428.77246,1.78662,0,.67627-.72656,1.0625-1.29785,1.0625a.78471.78471,0,0,1-.77343-.45068c-.07715-.12891-.38672-.80469-.46387-.94971C18.72461,25.155,17.5498,25.3479,15.71094,25.509ZM17.7041,11.3269c.46387,0,.64942.2251.86621.65967a15.9718,15.9718,0,0,0,2.68946,3.86377c.16992.17676,1.14355,1.11084,1.20605,1.19092a.94847.94847,0,0,1,.21582.5957A1.25051,1.25051,0,0,1,21.584,18.87671c-.30859,0-.55664-.11279-1.31347-.90137-2.13281-2.18945-3.64844-5.11914-3.64844-5.731A1.016,1.016,0,0,1,17.7041,11.3269Z"/><path class="cls-2" d="M25.85352,25.57349a.76969.76969,0,0,1-.85059.88525c-.71094,0-.94238-.28955-.94238-.88525V13.58032c0-1.35205.58691-1.73828,1.66894-1.73828H28.666c1.14453,0,1.66992.43457,1.66992,1.73828v2.10889c0,1.272-.49512,1.75488-1.66992,1.75488h-2.8125Zm2.7666-11.59082v-.33789a.34113.34113,0,0,0-.3711-.38624H26.22461a.33873.33873,0,0,0-.37109.38624v.33789Zm-.01563,1.28808h-2.751v.75635H28.249c.2627,0,.35547-.16064.35547-.38623Zm5.95117,5.71485c.23145,0,.81934,0,.81934.8208,0,.80517-.55664.82129-.81934.82129H33.50488V25.364a.73417.73417,0,0,1-.81933.85352c-.78809,0-.91211-.38672-.91211-.85352V22.62769H30.01172C29.7793,24.7522,28.419,26.15308,27.832,26.15308a1.04672,1.04672,0,0,1-1.00488-.998.91407.91407,0,0,1,.35547-.67627,3.28123,3.28123,0,0,0,1.0205-1.85107H27.13574c-.23144,0-.81836,0-.81836-.82129,0-.8208.57129-.8208.81836-.8208H28.3418V19.66528h-.92774a.70179.70179,0,0,1-.77246-.78857.71521.71521,0,0,1,.81934-.80518h6.78515a.71522.71522,0,0,1,.81934.78907c0,.499-.24707.80468-.74121.80468h-.81934V20.9856Zm-2.78222,0V19.66528H30.10352V20.9856Zm1.23633-3.54151c-1.06641,0-1.669-.35449-1.669-1.75488V13.58032c0-1.31982.541-1.73828,1.669-1.73828h2.96777c1.14355,0,1.68457.41846,1.68457,1.73828V24.47876c0,1.80322-.52539,1.89941-2.54981,1.89941-.49511,0-1.31445,0-1.31445-1.0625,0-.93359.665-.93359.88184-.93359.13867,0,.72656.01611.84961,0,.27832-.04834.33984-.16064.33984-.51514V17.44409Zm.10839-3.46142h2.751v-.33789a.34106.34106,0,0,0-.37109-.38624H33.48926a.33874.33874,0,0,0-.3711.38624Zm0,1.28808v.37012q0,.38672.3711.38623h2.37988v-.75635Z"/><path class="cls-2" d="M47.29492,25.52515c0,.25732,0,.96582-.98926.96582-.89648,0-1.00488-.56348-1.00488-.96582V22.06421H41.65332c-1.36035,0-2.07129-.4668-2.07129-2.15723v-3.96c0-1.67431.69531-2.15723,2.07129-2.15723h3.64746V12.196a.84056.84056,0,0,1,.94336-.9497c.75781,0,1.05078.27344,1.05078.9497v1.59375h3.69434c1.40722,0,2.07129.51514,2.07129,2.15723v3.96c0,1.64209-.64942,2.15723-2.07129,2.15723H47.29492Zm-1.99414-9.80371H42.22559c-.46387,0-.68067.24169-.68067.70849v3.01026c0,.45068.20117.708.68067.708h3.07519Zm1.99414,4.42675h3.123c.50976,0,.66406-.30566.66406-.708V16.42993c0-.48291-.21582-.70849-.66406-.70849h-3.123Z"/></g></g></svg>