<svg xmlns="http://www.w3.org/2000/svg" viewBox="0 0 61.3501 38.34351"><defs><style>.cls-1{fill:#666;}.cls-2{fill:#fff;}</style></defs><g id="レイヤー_2" data-name="レイヤー 2"><g id="design"><path class="cls-1" d="M7.66846.76733H53.68213A6.90137,6.90137,0,0,1,60.5835,7.6687V30.67407a6.90234,6.90234,0,0,1-6.90234,6.90234H7.66846A6.90137,6.90137,0,0,1,.76709,30.675V7.6687A6.90137,6.90137,0,0,1,7.66846.76733Z"/><path class="cls-2" d="M53.68115,1.53369a6.14223,6.14223,0,0,1,6.13526,6.135V30.6748a6.14222,6.14222,0,0,1-6.13526,6.135H7.669a6.14222,6.14222,0,0,1-6.13526-6.135V7.6687A6.14222,6.14222,0,0,1,7.669,1.53369h46.0122m0-1.53369H7.669A7.66885,7.66885,0,0,0,0,7.6687V30.6748a7.66885,7.66885,0,0,0,7.669,7.66871h46.0122A7.66886,7.66886,0,0,0,61.3501,30.6748V7.6687A7.66886,7.66886,0,0,0,53.68115,0Z"/><path class="cls-2" d="M28.13721,12.59839c.59472,0,1.56054,0,1.56054,1.23974,0,1.54541-1.65722,3.29981-2.20507,3.86329A8.77941,8.77941,0,0,0,28.813,18.426c1.46484.644,1.72265.75634,1.72265,1.4165,0,.22559-.21,1.11084-.96582,1.11084a9.9276,9.9276,0,0,1-3.62207-1.93164,11.35836,11.35836,0,0,1-3.70312,1.98c-.51465,0-.75684-.43457-.85254-.8374a1.16485,1.16485,0,0,1-.4834.11279c-.499,0-.5957-.38623-.69238-.78857-.12891.01611-.77246.08056-.917.09619v6.06933a.74542.74542,0,0,1-.80567.853.73517.73517,0,0,1-.78808-.853v-5.9082c-.32227.03223-1.46485.11279-1.65821.11279s-.88574,0-.88574-.91748c0-.78906.499-.82129,1.17481-.85351l.82128-1.0625a14.215,14.215,0,0,0-1.36816-1.49707c-.37012-.33789-.54687-.53125-.54687-.88526a.95018.95018,0,0,1,.86914-.96582.70862.70862,0,0,1,.35351.09668c.4668-.69238.9502-1.59375.98242-1.6582.27344-.56348.40235-.83692.88575-.83692.46679,0,1.06152.38623,1.06152.80469a13.60441,13.60441,0,0,1-1.6416,2.84961c.25781.27344.40234.45068.499.54688.62793-.91748.64356-.94971,1.33594-2.1084a.83445.83445,0,0,1,.74121-.53125c.37012,0,1.03027.354,1.03027.83691,0,.56348-2.02832,3.15528-3.05859,4.34668.56348-.03222,1.40039-.09668,1.5293-.11279-.01661-.04834-.03223-.08057-.06446-.17725a2.29316,2.29316,0,0,1-.19336-.74023c0-.419.4502-.56348.708-.56348.45117,0,.5957.33789.72461.67578.209.53125.62793,1.93213.67578,2.09278a2.31017,2.31017,0,0,1,.30567-.16065,14.11987,14.11987,0,0,0,2.56054-1.272,12.856,12.856,0,0,1-1.30468-1.73877c-.9336.95019-1.09473.95019-1.33594.95019a1.09786,1.09786,0,0,1-.998-.9663,1.07964,1.07964,0,0,1,.40235-.75635,14.48415,14.48415,0,0,0,2.2539-2.624c.75684-1.25586.82129-1.38428,1.35254-1.38428.27344,0,1.0459.1123,1.0459.80469a1.279,1.279,0,0,1-.17676.54736Zm-10.9795,8.67676a20.75354,20.75354,0,0,1-.32226,3.30029c-.12793.499-.28906.80469-.74024.80469-.08007,0-.90136,0-.90136-.74024,0-.19336.209-1.07861.24121-1.25586a21.99859,21.99859,0,0,0,.24219-2.18945c.03222-.53125.19238-.74023.6914-.74023C17.15771,20.45435,17.15771,21.00171,17.15771,21.27515Zm4.16993.27392c.09668.53125.38574,2.189.38574,2.57569,0,.51513-.53125.708-.88477.708-.62793,0-.66015-.38623-.69238-.67578-.08105-.56347-.08105-.66015-.19336-1.56152-.03223-.25781-.22558-1.35254-.22558-1.57764,0-.54736.58007-.5957.85351-.5957C21.11768,20.42212,21.18213,20.71167,21.32764,21.54907Zm6.793,2.55957c1.15918.37012,1.52929.53125,1.52929,1.14307a1.0843,1.0843,0,0,1-.95019,1.14258c-.25684,0-.33789-.03223-1.40039-.45069a27.10659,27.10659,0,0,0-4.13672-1.15918c-.54785-.12841-.99805-.22509-.99805-.90136a.89862.89862,0,0,1,.86914-.998A27.38617,27.38617,0,0,1,28.12061,24.10864Zm-.499-2.93017c.56348.33838.74024.48291.74024.88574a.93267.93267,0,0,1-.88477.93359c-.21,0-.38672-.08056-.90137-.38623-.48339-.27392-1.17578-.5957-1.64257-.80517-.67579-.28955-.917-.48291-.917-.90137a.9796.9796,0,0,1,.917-.91748A9.355,9.355,0,0,1,27.62158,21.17847Zm-2.89746-6.88965c-.09668.11279-.12891.16064-.209.25732a7.76985,7.76985,0,0,0,1.54492,2.04444A5.23013,5.23013,0,0,0,27.57373,14.53c0-.24121-.24219-.24121-.29-.24121Z"/><path class="cls-2" d="M40.07178,24.47876c0,.499,0,1.46484-.90137,1.771-.30566.1123-.4668.16064-2.55957.16064a6.3831,6.3831,0,0,1-2.0127-.11279.94717.94717,0,0,1-.53125-.94971c0-.998.69239-.998,1.09473-.998.27442,0,2.02832.04834,2.09277.04834.4834,0,.69239-.11279.69239-.5957V16.7356c0-.48291.22558-.853.77246-.853.06445,0,.1289.01611.35449.04834,1.57715-.46729,3.47754-1.43311,3.47754-1.81934,0-.06445-.03223-.19287-.35449-.19287H32.45752a.84414.84414,0,0,1-.98242-.93408c0-.74024.22558-1.07861.98242-1.07861H44.53076c.51563,0,1.57813,0,1.57813,1.25586,0,.88525-.4668,1.38427-1.626,2.18945a18.2957,18.2957,0,0,1-4.41113,2.2373Z"/></g></g></svg>