<svg xmlns="http://www.w3.org/2000/svg" viewBox="0 0 61.34961 38.34351"><defs><style>.cls-1{fill:#00a0df;}.cls-2{fill:#fff;}</style></defs><g id="レイヤー_2" data-name="レイヤー 2"><g id="design"><path class="cls-1" d="M7.66895.76709H53.68115A6.90186,6.90186,0,0,1,60.583,7.66895V30.67432a6.90234,6.90234,0,0,1-6.90234,6.90234H7.66846A6.90186,6.90186,0,0,1,.7666,30.6748V7.66943A6.90234,6.90234,0,0,1,7.66895.76709Z"/><path class="cls-2" d="M53.68115,1.53369a6.14181,6.14181,0,0,1,6.13477,6.135V30.6748a6.14181,6.14181,0,0,1-6.13477,6.135H7.669a6.14222,6.14222,0,0,1-6.13526-6.135V7.6687A6.14222,6.14222,0,0,1,7.669,1.53369h46.0122m0-1.53369H7.669A7.669,7.669,0,0,0,0,7.6687V30.6748a7.66885,7.66885,0,0,0,7.669,7.66871h46.0122a7.66844,7.66844,0,0,0,7.66846-7.66871V7.6687A7.66859,7.66859,0,0,0,53.68115,0Z"/><path class="cls-2" d="M21.74414,18.89307H16.1748c-.35449,0-.98242-.04834-.98242-.9336a.8537.8537,0,0,1,.98242-.93408h6.14942c-.40234-.33789-1.19141-.98193-1.707-1.31982-.998-.62793-1.17481-.75684-1.17481-1.09473a1.008,1.008,0,0,1,.998-.98193,1.67205,1.67205,0,0,1,.62793.16113A13.61623,13.61623,0,0,1,23.1123,15.1582a12.76277,12.76277,0,0,0,1.65821-.88525c.24219-.145.6123-.38623.6123-.51514,0-.17724-.22558-.17724-.33789-.17724H17.38184c-.4668,0-.98243-.12891-.98243-.91748a.84391.84391,0,0,1,.98243-.91748h9.81933c.499,0,1.56153,0,1.56153,1.28759a1.67914,1.67914,0,0,1-.77247,1.35254,21.24312,21.24312,0,0,1-3.47656,1.91553c.418.40234.499.499.59473.72412h3.44531c.56348,0,1.61035,0,1.61035,1.33643a2.21657,2.21657,0,0,1-.38672,1.23925,13.64958,13.64958,0,0,1-2.18945,2.44727c-.95019.853-1.07812.853-1.33594.853a1.19956,1.19956,0,0,1-1.14355-1.11084c0-.37012.04883-.40235.93457-1.09473a5.28546,5.28546,0,0,0,1.48047-1.60986c0-.19287-.22559-.19287-.33789-.19287H23.918v5.47314a1.82919,1.82919,0,0,1-.88574,1.81934,8.9673,8.9673,0,0,1-2.44727.209,7.14394,7.14394,0,0,1-1.60937-.11279,1.0428,1.0428,0,0,1-.58008-.98194.98164.98164,0,0,1,1.12695-1.01416c.09668,0,1.11133.03223,1.32031.03223.51563,0,.90137-.01611.90137-.62744Z"/><path class="cls-2" d="M38.00977,13.37158V12.24463a.86361.86361,0,0,1,.96582-.99805c.80468,0,1.127.25733,1.127.99805v1.12695h4.41113a.84414.84414,0,0,1,.98145.90137c0,.80469-.56348.90137-.98145.90137H40.10254v1.99609h5.4248c.40235,0,.96582.08057.96582.90137,0,.67627-.37011.90185-.96582.90185H32.29492a.84116.84116,0,0,1-.98144-.86963c0-.69189.35351-.93359.98144-.93359h5.71485V15.17432H34.71a10.57286,10.57286,0,0,1-.918,1.1914.92088.92088,0,0,1-.75683.38623,1.16575,1.16575,0,0,1-1.19043-.998c0-.354.08007-.43457.917-1.43262a10.47383,10.47383,0,0,0,1.40039-2.23779c.21-.41846.35449-.66016.85351-.66016.29,0,1.15918.12891,1.15918.8374a2.30137,2.30137,0,0,1-.37011,1.11084Zm6.9541,10.898c0,1.417-.61133,1.86768-1.86719,1.86768H34.74219c-1.25586,0-1.86719-.43457-1.86719-1.86768V21.96777c0-1.40039.59473-1.86767,1.86719-1.86767h8.35449c1.27148,0,1.86719.46728,1.86719,1.86767ZM42.8877,22.41846a.49111.49111,0,0,0-.54786-.56348H35.49805a.49553.49553,0,0,0-.5625.56348v1.40039a.4898.4898,0,0,0,.5625.54736h6.84179a.47959.47959,0,0,0,.54786-.54736Z"/></g></g></svg>