<svg xmlns="http://www.w3.org/2000/svg" viewBox="0 0 27.10427 24"><defs><style>.cls-1{fill:#fff;}.cls-2{fill:#003854;}</style></defs><g id="レイヤー_2" data-name="レイヤー 2"><g id="design"><path class="cls-1" d="M25.01394,24H2.09034a1.991,1.991,0,0,1-1.873-.90338,1.991,1.991,0,0,1,.15416-2.07379L11.83326,1.17042A1.991,1.991,0,0,1,13.55214,0,1.991,1.991,0,0,1,15.271,1.17042l11.4618,19.85241A1.84739,1.84739,0,0,1,25.01394,24Z"/><path class="cls-2" d="M14.69205,19.95259a1.51458,1.51458,0,0,1-1.65508,1.2819,1.51323,1.51323,0,0,1-1.65509-1.2819A1.50428,1.50428,0,0,1,13.037,18.67072,1.50557,1.50557,0,0,1,14.69205,19.95259Zm-.62316-2.96753c-.09066.44949-.1632.92706-.99746.92706-.85238,0-.96119-.36523-1.07-.92706L10.938,10.74843c-.03894-.49426-.61781-2.75894,2.07905-2.75894,2.78615,0,2.20846,1.94731,2.1447,2.75894Z"/></g></g></svg>